<?xml version="1.0" standalone="no"?>
<!DOCTYPE svg PUBLIC "-//W3C//DTD SVG 20010904//EN"
 "http://www.w3.org/TR/2001/REC-SVG-20010904/DTD/svg10.dtd">
<svg version="1.0" xmlns="http://www.w3.org/2000/svg"
 width="752.000000pt" height="698.000000pt" viewBox="0 0 752.000000 698.000000"
 preserveAspectRatio="xMidYMid meet">

<g transform="translate(0.000000,698.000000) scale(0.100000,-0.100000)"
fill="#d30013" stroke="none">
<path d="M1750 6054 c-19 -8 -50 -29 -68 -47 -65 -63 -62 -1 -62 -1384 0 -689
3 -1253 6 -1253 3 0 67 18 142 39 313 90 681 174 992 225 133 22 456 66 484
66 11 0 1 383 -14 525 -59 559 -241 1161 -507 1675 -41 80 -79 151 -85 158 -8
9 -106 12 -432 12 -353 -1 -427 -3 -456 -16z"/>
<path d="M3241 5920 c91 -281 168 -627 208 -942 40 -309 46 -415 46 -842 l-1
-418 51 6 c197 24 798 16 1085 -15 373 -39 795 -127 1079 -224 41 -14 78 -25
83 -25 14 0 10 2426 -4 2472 -15 50 -76 111 -126 126 -29 9 -352 12 -1254 12
l-1216 0 49 -150z"/>
<path d="M3466 3489 c-3 -13 -12 -87 -21 -164 -48 -412 -175 -984 -299 -1344
-14 -41 -26 -78 -26 -83 0 -4 566 -8 1259 -8 l1259 0 53 28 c43 22 59 38 81
81 l28 53 0 389 0 389 -91 60 c-192 126 -554 290 -859 388 -414 134 -796 203
-1257 228 l-122 6 -5 -23z"/>
<path d="M3020 3489 c-166 -13 -439 -48 -629 -80 -204 -34 -552 -108 -564
-119 -5 -4 11 -10 35 -14 72 -12 217 -56 333 -102 198 -79 405 -218 586 -392
131 -126 208 -221 267 -330 22 -41 42 -70 45 -65 7 11 62 292 86 438 23 140
48 344 56 465 3 47 8 113 11 148 l6 62 -64 -1 c-35 -1 -110 -6 -168 -10z"/>
<path d="M1620 2644 c0 -367 4 -570 11 -598 14 -56 62 -114 113 -137 38 -17
78 -19 604 -19 474 0 562 2 562 14 0 23 -40 146 -76 234 -130 315 -401 630
-719 834 -95 62 -269 148 -387 192 -53 20 -100 36 -103 36 -3 0 -5 -250 -5
-556z"/>
<path d="M660 1110 l0 -350 265 0 265 0 0 60 0 60 -195 0 -195 0 0 290 0 290
-70 0 -70 0 0 -350z"/>
<path d="M4690 1110 l0 -350 65 0 65 0 2 245 3 246 140 -245 140 -245 73 -1
72 0 0 350 0 350 -65 0 -65 0 -2 -245 -3 -245 -139 245 -139 245 -73 0 -74 0
0 -350z"/>
<path d="M6550 1350 l0 -70 -35 0 -35 0 0 -50 0 -50 35 0 35 0 0 -181 0 -181
29 -29 c27 -27 35 -29 105 -29 l76 0 0 49 0 50 -37 3 -38 3 -3 158 -3 157 41
0 40 0 0 50 0 50 -40 0 -40 0 0 70 0 70 -65 0 -65 0 0 -70z"/>
<path d="M6120 1303 c-59 -10 -91 -26 -124 -63 -71 -79 -58 -183 29 -228 11
-5 65 -22 119 -36 107 -28 126 -38 126 -67 0 -29 -39 -49 -98 -49 -43 0 -58 5
-77 25 -14 13 -25 31 -25 40 0 13 -11 15 -67 13 l-68 -3 3 -30 c5 -45 45 -99
89 -121 47 -23 190 -31 253 -14 105 28 158 151 102 237 -23 36 -71 60 -167 84
-130 31 -159 54 -117 92 12 11 36 17 70 17 46 0 54 -3 74 -30 20 -28 26 -30
85 -30 73 0 78 8 40 75 -35 63 -152 105 -247 88z"/>
<path d="M1412 1285 c-94 -41 -140 -112 -149 -229 -14 -187 84 -296 266 -296
98 1 181 43 217 112 23 44 19 48 -55 48 -53 0 -70 -4 -75 -15 -16 -44 -125
-54 -174 -17 -23 18 -54 90 -45 104 2 5 88 8 190 8 l186 0 -5 68 c-8 105 -57
182 -140 216 -47 20 -171 20 -216 1z m145 -95 c24 0 73 -56 73 -84 l0 -26
-115 0 c-104 0 -115 2 -115 18 0 21 27 63 49 77 22 14 63 23 79 19 8 -2 20 -4
29 -4z"/>
<path d="M1965 1287 c-16 -6 -40 -18 -52 -25 -28 -15 -63 -81 -63 -117 0 -24
2 -25 60 -25 54 0 61 3 69 23 14 37 39 51 92 50 58 -1 79 -15 79 -54 0 -36
-17 -44 -120 -59 -96 -14 -158 -44 -182 -90 -22 -42 -23 -111 -3 -154 39 -83
179 -102 269 -38 l45 32 3 -27 c3 -27 5 -28 76 -31 55 -2 72 0 72 11 0 7 -4
17 -9 23 -5 5 -11 95 -13 201 -3 216 -8 230 -84 268 -48 23 -193 31 -239 12z
m185 -318 c0 -42 -5 -55 -28 -79 -40 -39 -95 -49 -130 -23 -33 24 -39 62 -15
92 15 18 99 48 166 60 4 0 7 -22 7 -50z"/>
<path d="M3062 1274 c-29 -14 -64 -41 -78 -60 -79 -102 -70 -303 16 -385 107
-102 318 -90 399 22 46 63 43 69 -38 69 -53 0 -70 -4 -75 -15 -16 -43 -118
-54 -172 -19 -24 16 -58 89 -49 105 4 5 88 9 192 9 l186 0 -5 68 c-6 79 -32
136 -82 180 -68 59 -203 71 -294 26z m196 -101 c13 -8 27 -25 32 -39 21 -53
19 -54 -105 -54 -126 0 -130 2 -101 58 13 25 36 42 76 56 21 7 71 -3 98 -21z"/>
<path d="M3925 1287 c-16 -6 -40 -18 -52 -25 -28 -15 -63 -81 -63 -117 0 -24
2 -25 60 -25 54 0 61 3 69 23 14 37 39 51 92 50 58 -1 79 -15 79 -54 0 -36
-17 -44 -120 -59 -148 -21 -205 -73 -197 -182 6 -96 66 -143 173 -136 51 3 72
10 108 35 l44 31 6 -29 c5 -29 6 -29 76 -29 69 0 86 10 61 36 -5 5 -11 95 -13
201 -3 216 -8 230 -84 268 -48 23 -193 31 -239 12z m185 -315 c0 -57 -20 -89
-66 -108 -48 -20 -71 -17 -99 11 -52 51 -22 98 80 124 39 10 73 19 78 20 4 0
7 -20 7 -47z"/>
<path d="M5505 1281 c-50 -22 -108 -86 -126 -137 -7 -22 -13 -75 -14 -120 0
-70 4 -88 30 -140 27 -52 38 -62 94 -91 52 -27 74 -33 128 -33 36 0 84 6 107
12 45 14 129 89 138 126 6 21 3 22 -61 22 -55 0 -71 -4 -86 -20 -28 -31 -85
-45 -128 -31 -46 16 -87 64 -87 102 l0 29 188 0 189 0 -4 53 c-7 84 -22 126
-61 169 -52 58 -101 78 -192 78 -51 0 -88 -6 -115 -19z m183 -108 c24 -15 54
-72 46 -85 -3 -5 -57 -8 -120 -8 -127 0 -131 2 -91 61 37 55 107 69 165 32z"/>
<path d="M2370 1267 c0 -2 40 -115 89 -253 l89 -249 74 -3 73 -3 74 208 c41
114 82 229 92 256 l19 47 -73 0 -72 0 -34 -122 c-63 -224 -73 -253 -81 -237
-4 8 -29 92 -55 187 l-48 172 -73 0 c-41 0 -74 -1 -74 -3z"/>
</g>
</svg>
