<?xml version="1.0" encoding="UTF-8" standalone="no"?>
<svg
   xmlns:dc="http://purl.org/dc/elements/1.1/"
   xmlns:cc="http://creativecommons.org/ns#"
   xmlns:rdf="http://www.w3.org/1999/02/22-rdf-syntax-ns#"
   xmlns:svg="http://www.w3.org/2000/svg"
   xmlns="http://www.w3.org/2000/svg"
   viewBox="0 0 274.73199 291.34799"
   height="291.34799"
   width="274.73199"
   xml:space="preserve"
   id="svg2"
   version="1.1"><metadata
     id="metadata8"><rdf:RDF><cc:Work
         rdf:about=""><dc:format>image/svg+xml</dc:format><dc:type
           rdf:resource="http://purl.org/dc/dcmitype/StillImage" /></cc:Work></rdf:RDF></metadata><defs
     id="defs6"><clipPath
       id="clipPath18"
       clipPathUnits="userSpaceOnUse"><path
         id="path16"
         d="M 0,218.511 H 206.049 V 0 H 0 Z" /></clipPath></defs><g
     transform="matrix(1.3333333,0,0,-1.3333333,0,291.348)"
     id="g10"><g
       id="g12"><g
         clip-path="url(#clipPath18)"
         id="g14"><g
           transform="translate(159.4307,148.3193)"
           id="g20"><path
             id="path22"
             style="fill:#dd3f7d;fill-opacity:1;fill-rule:nonzero;stroke:none"
             d="m 0,0 c 6.609,5.475 7.525,15.289 2.049,21.9 -5.485,6.614 -15.291,7.53 -21.91,2.047 -6.614,-5.482 -7.526,-15.285 -2.051,-21.9 C -16.428,-4.568 -6.621,-5.486 0,0" /></g><g
           transform="translate(127.6025,182.2549)"
           id="g24"><path
             id="path26"
             style="fill:#dd3f7d;fill-opacity:1;fill-rule:nonzero;stroke:none"
             d="m 0,0 c 5.479,4.543 6.24,12.666 1.693,18.15 -4.541,5.479 -12.662,6.239 -18.146,1.702 C -21.932,15.301 -22.688,7.18 -18.15,1.699 -13.605,-3.781 -5.49,-4.541 0,0" /></g><g
           transform="translate(84.9521,181.5869)"
           id="g28"><path
             id="path30"
             style="fill:#dd3f7d;fill-opacity:1;fill-rule:nonzero;stroke:none"
             d="m 0,0 c 4.131,3.43 4.703,9.547 1.283,13.672 -3.422,4.129 -9.539,4.701 -13.664,1.277 C -16.512,11.535 -17.08,5.41 -13.664,1.285 -10.236,-2.842 -4.125,-3.412 0,0" /></g><g
           transform="translate(60.5537,157.7803)"
           id="g32"><path
             id="path34"
             style="fill:#dd3f7d;fill-opacity:1;fill-rule:nonzero;stroke:none"
             d="M 0,0 C 3.146,2.607 3.586,7.275 0.977,10.42 -1.635,13.566 -6.299,14.004 -9.451,11.4 -12.598,8.785 -13.031,4.121 -10.424,0.973 -7.813,-2.178 -3.152,-2.615 0,0" /></g><g
           transform="translate(56.0107,130.4189)"
           id="g36"><path
             id="path38"
             style="fill:#dd3f7d;fill-opacity:1;fill-rule:nonzero;stroke:none"
             d="M 0,0 C 2.363,1.957 2.697,5.459 0.734,7.822 -1.223,10.182 -4.73,10.508 -7.088,8.553 -9.445,6.598 -9.766,3.098 -7.82,0.734 -5.859,-1.631 -2.359,-1.959 0,0" /></g><g
           transform="translate(63.3662,109.6963)"
           id="g40"><path
             id="path42"
             style="fill:#dd3f7d;fill-opacity:1;fill-rule:nonzero;stroke:none"
             d="M 0,0 C 1.758,1.465 2.01,4.092 0.539,5.859 -0.926,7.631 -3.545,7.877 -5.32,6.414 -7.084,4.941 -7.34,2.32 -5.871,0.543 -4.4,-1.227 -1.775,-1.471 0,0" /></g><g
           transform="translate(76.6045,95.6143)"
           id="g44"><path
             id="path46"
             style="fill:#dd3f7d;fill-opacity:1;fill-rule:nonzero;stroke:none"
             d="M 0,0 C 1.328,1.109 1.516,3.076 0.418,4.404 -0.688,5.73 -2.652,5.91 -3.986,4.814 -5.311,3.713 -5.492,1.746 -4.391,0.418 -3.289,-0.912 -1.328,-1.094 0,0" /></g><g
           transform="translate(144.1729,126.1729)"
           id="g48"><path
             id="path50"
             style="fill:#adcf41;fill-opacity:1;fill-rule:nonzero;stroke:none"
             d="m 0,0 c -4.283,-1.926 -8.709,-3.914 -12.967,-6.129 -12.967,-6.762 -22.752,-17.633 -28.435,-31.488 -5.256,-2.203 -11.028,-3.725 -16.272,-4.168 3.639,2.099 7.213,5.002 10.26,8.234 2.689,1.153 5.285,2.524 7.752,4.094 4.789,8.559 11.314,15.711 19.281,21.162 0.996,1.953 1.871,3.988 2.639,6.098 3.513,9.701 4.078,19.75 2.168,29.17 -6.328,-9.813 -14.479,-16.985 -21.479,-25.559 -7.695,-9.418 -11.91,-21.336 -11.609,-34.373 -3.709,-3.844 -8.151,-7.215 -12.404,-9.178 l 0.525,-1.148 c 0.031,0.012 0.061,0.027 0.096,0.047 v -0.211 c 0.105,0.002 0.205,0 0.316,0.008 6.234,0.07 13.33,1.796 19.666,4.505 17.09,0.221 34.059,7.088 46.66,20.551 C 14.322,-9.709 19.6,0.609 22.088,11.418 14.861,6.682 7.314,3.277 0,0" /></g><g
           transform="translate(23.292,61.0791)"
           id="g52"><path
             id="path54"
             style="fill:#6b6a6a;fill-opacity:1;fill-rule:nonzero;stroke:none"
             d="m 0,0 c 0,-4.879 3.963,-8.953 8.867,-8.953 4.914,0 8.871,4.074 8.871,8.953 0,4.906 -3.906,8.953 -8.871,8.953 C 3.902,8.953 0,4.906 0,0 m 20.148,-0.027 c 0,-6.227 -5.109,-11.166 -11.281,-11.166 -6.164,0 -11.279,4.939 -11.279,11.166 0,6.197 5.115,11.218 11.279,11.218 6.172,0 11.281,-5.021 11.281,-11.218" /></g><g
           transform="translate(58.1572,59.7295)"
           id="g56"><path
             id="path58"
             style="fill:#6b6a6a;fill-opacity:1;fill-rule:nonzero;stroke:none"
             d="m 0,0 h -0.061 c -1.062,1.35 -2.377,2.271 -4.187,2.271 -2.777,0 -4.762,-2.3 -4.762,-4.996 0,-2.67 1.838,-4.994 4.651,-4.994 1.921,0 3.269,0.862 4.388,2.324 h 0.059 v -3.07 c -1.318,-0.89 -2.672,-1.379 -4.277,-1.379 -4.073,0 -7.176,3.041 -7.176,7.119 0,4.016 3.244,7.118 7.205,7.118 1.463,0 2.955,-0.491 4.16,-1.35 z" /></g><g
           transform="translate(65.5303,73.9346)"
           id="g60"><path
             id="path62"
             style="fill:#6b6a6a;fill-opacity:1;fill-rule:nonzero;stroke:none"
             d="m 0,0 v -11.766 l 0.059,-0.058 c 0.949,1.291 2.179,2.011 3.843,2.011 3.731,0 4.592,-2.699 4.592,-5.855 v -8.006 H 6.197 v 7.604 c 0,2.179 -0.174,4.136 -2.838,4.136 -3.16,0 -3.359,-2.929 -3.359,-5.341 v -6.399 h -2.289 l 0,23.674 z" /></g><g
           transform="translate(81.0225,57.1455)"
           id="g64"><path
             id="path66"
             style="fill:#6b6a6a;fill-opacity:1;fill-rule:nonzero;stroke:none"
             d="m 0,0 c 0,-2.639 1.555,-5.135 4.422,-5.135 2.957,0 4.506,2.385 4.506,5.108 0,2.699 -1.699,4.882 -4.535,4.882 C 1.727,4.855 0,2.527 0,0 M 11.109,-6.885 H 8.816 V -5.02 H 8.754 c -1.176,-1.49 -2.75,-2.24 -4.649,-2.24 -3.957,0 -6.451,3.358 -6.451,7.092 0,3.84 2.438,7.145 6.479,7.145 1.842,0 3.506,-0.862 4.621,-2.297 H 8.816 V 6.6 h 2.293 z" /></g><g
           transform="translate(100.1045,62.1104)"
           id="g68"><path
             id="path70"
             style="fill:#6b6a6a;fill-opacity:1;fill-rule:nonzero;stroke:none"
             d="m 0,0 h 0.059 c 0.943,1.291 2.183,2.012 3.843,2.012 3.733,0 4.598,-2.7 4.598,-5.856 V -11.85 H 6.203 v 7.604 c 0,2.18 -0.18,4.137 -2.846,4.137 C 0.205,-0.109 0,-3.039 0,-5.451 V -11.85 H -2.291 V 1.635 l 2.291,0 z" /></g><g
           transform="translate(115.4795,57.0049)"
           id="g72"><path
             id="path74"
             style="fill:#6b6a6a;fill-opacity:1;fill-rule:nonzero;stroke:none"
             d="M 0,0 C 0,-2.758 1.953,-4.994 4.799,-4.994 7.637,-4.994 9.59,-2.758 9.59,0 9.59,2.725 7.637,4.996 4.799,4.996 1.953,4.996 0,2.725 0,0 m -2.293,-0.027 c 0,3.957 3.131,7.144 7.092,7.144 3.963,0 7.088,-3.187 7.088,-7.144 0,-3.961 -3.16,-7.092 -7.088,-7.092 -3.928,0 -7.092,3.131 -7.092,7.092" /></g><g
           transform="translate(134.2529,62.2822)"
           id="g76"><path
             id="path78"
             style="fill:#6b6a6a;fill-opacity:1;fill-rule:nonzero;stroke:none"
             d="m 0,0 h 0.055 c 0.722,1.119 1.867,1.84 3.242,1.84 1.574,0 3.014,-0.834 3.73,-2.24 0.805,1.494 2.412,2.24 4.043,2.24 3.453,0 4.309,-2.817 4.309,-5.654 v -8.207 h -2.295 v 7.832 c 0,1.755 -0.115,3.908 -2.467,3.908 -2.64,0 -2.926,-2.561 -2.926,-4.596 v -7.144 H 5.395 v 7.66 c 0,1.666 -0.204,4.08 -2.411,4.08 C 0.287,-0.281 0,-3.014 0,-5.051 v -6.97 H -2.301 V 1.463 l 2.301,0 z" /></g><path
           id="path80"
           style="fill:#6b6a6a;fill-opacity:1;fill-rule:nonzero;stroke:none"
           d="m 158.151,50.261 h -2.295 v 13.484 h 2.295 z m 0.485,18.566 c 0,-0.918 -0.742,-1.637 -1.631,-1.637 -0.891,0 -1.635,0.719 -1.635,1.637 0,0.891 0.744,1.635 1.635,1.635 0.889,0 1.631,-0.744 1.631,-1.635" /><g
           transform="translate(176.4287,52.3838)"
           id="g82"><path
             id="path84"
             style="fill:#6b6a6a;fill-opacity:1;fill-rule:nonzero;stroke:none"
             d="M 0,0 V -2.123 H -13.941 L -4.219,9.24 h -7.922 v 2.121 H 0.402 L -9.299,0 Z" /></g><g
           transform="translate(182.833,56.2314)"
           id="g86"><path
             id="path88"
             style="fill:#6b6a6a;fill-opacity:1;fill-rule:nonzero;stroke:none"
             d="m 0,0 c 0,-2.271 0.252,-4.221 3.033,-4.221 2.785,0 3.047,1.95 3.047,4.221 v 7.514 h 2.289 v -7.778 c 0,-3.584 -1.344,-6.082 -5.336,-6.082 -3.984,0 -5.332,2.498 -5.332,6.082 V 7.514 H 0 Z" /></g><g
           transform="translate(44.458,28.8096)"
           id="g90"><path
             id="path92"
             style="fill:#6b6a6a;fill-opacity:1;fill-rule:nonzero;stroke:none"
             d="m 0,0 c 0,-1.605 -0.064,-3.443 0.947,-4.822 0.946,-1.321 2.785,-2.065 4.36,-2.065 1.547,0 3.238,0.717 4.246,1.922 1.146,1.379 1.066,3.274 1.066,4.965 v 12.883 h 2.41 V -0.658 c 0,-2.356 -0.179,-4.221 -1.898,-6 -1.488,-1.608 -3.643,-2.469 -5.824,-2.469 -2.039,0 -4.133,0.773 -5.6,2.209 -1.889,1.811 -2.121,3.789 -2.121,6.26 V 12.883 H 0 Z" /></g><g
           transform="translate(65.4873,31.9072)"
           id="g94"><path
             id="path96"
             style="fill:#6b6a6a;fill-opacity:1;fill-rule:nonzero;stroke:none"
             d="m 0,0 h 0.055 c 0.947,1.291 2.183,2.008 3.847,2.008 3.731,0 4.594,-2.696 4.594,-5.854 v -8.006 H 6.195 v 7.604 c 0,2.185 -0.166,4.135 -2.838,4.135 C 0.199,-0.113 0,-3.041 0,-5.449 v -6.403 H -2.293 V 1.641 H 0 Z" /></g><path
           id="path98"
           style="fill:#6b6a6a;fill-opacity:1;fill-rule:nonzero;stroke:none"
           d="M 82.499,20.056 H 80.21 v 13.492 h 2.289 z m 0.492,18.57 c 0,-0.924 -0.746,-1.641 -1.637,-1.641 -0.884,0 -1.632,0.717 -1.632,1.641 0,0.887 0.748,1.633 1.632,1.633 0.891,0 1.637,-0.746 1.637,-1.633" /><g
           transform="translate(93.2061,24.4775)"
           id="g100"><path
             id="path102"
             style="fill:#6b6a6a;fill-opacity:1;fill-rule:nonzero;stroke:none"
             d="M 0,0 4.016,9.07 H 6.602 L 0,-5.309 -6.625,9.07 h 2.609 z" /></g><g
           transform="translate(112.7764,28.2666)"
           id="g104"><path
             id="path106"
             style="fill:#6b6a6a;fill-opacity:1;fill-rule:nonzero;stroke:none"
             d="m 0,0 c -0.314,1.947 -1.953,3.527 -3.959,3.527 -1.99,0 -3.814,-1.58 -4.104,-3.527 z m -8.176,-1.951 c 0.024,-2.502 1.803,-4.506 4.41,-4.506 1.953,0 3.217,1.172 4.108,2.779 L 2.299,-4.795 C 1,-7.205 -1.18,-8.584 -3.934,-8.584 c -4.011,0 -6.599,3.072 -6.599,6.945 0,3.989 2.326,7.287 6.549,7.287 4.326,0 6.623,-3.587 6.394,-7.599 z" /></g><g
           transform="translate(121.9561,32.0791)"
           id="g108"><path
             id="path110"
             style="fill:#6b6a6a;fill-opacity:1;fill-rule:nonzero;stroke:none"
             d="m 0,0 h 0.057 c 0.802,1.059 1.498,1.836 2.988,1.836 0.773,0 1.404,-0.25 2.06,-0.627 L 4.016,-0.887 C 3.555,-0.57 3.242,-0.285 2.637,-0.285 0.115,-0.285 0,-3.529 0,-5.277 v -6.746 H -2.293 V 1.469 l 2.293,0 z" /></g><g
           transform="translate(136.2725,30.4189)"
           id="g112"><path
             id="path114"
             style="fill:#6b6a6a;fill-opacity:1;fill-rule:nonzero;stroke:none"
             d="m 0,0 c -0.314,0.717 -1.004,1.375 -1.836,1.375 -0.801,0 -1.666,-0.631 -1.666,-1.49 0,-1.235 1.557,-1.696 3.127,-2.356 1.582,-0.658 3.131,-1.605 3.131,-3.875 0,-2.552 -2.063,-4.39 -4.569,-4.39 -2.261,0 -4.035,1.295 -4.759,3.416 l 2.039,0.863 c 0.568,-1.266 1.232,-2.152 2.756,-2.152 1.234,0 2.177,0.83 2.177,2.062 0,3.014 -6.082,1.981 -6.082,6.229 0,2.265 1.834,3.814 4.018,3.814 1.549,0 2.984,-1.086 3.586,-2.494 z" /></g><path
           id="path116"
           style="fill:#6b6a6a;fill-opacity:1;fill-rule:nonzero;stroke:none"
           d="m 146.429,20.056 h -2.291 v 13.492 h 2.291 z m 0.488,18.57 c 0,-0.924 -0.742,-1.641 -1.633,-1.641 -0.888,0 -1.638,0.717 -1.638,1.641 0,0.887 0.75,1.633 1.638,1.633 0.891,0 1.633,-0.746 1.633,-1.633" /><g
           transform="translate(155.0654,20.0557)"
           id="g118"><path
             id="path120"
             style="fill:#6b6a6a;fill-opacity:1;fill-rule:nonzero;stroke:none"
             d="m 0,0 h -2.297 v 11.365 h -1.402 v 2.127 h 1.402 V 18.34 H 0 V 13.492 H 2.41 V 11.365 H 0 Z" /></g><g
           transform="translate(158.7412,33.5479)"
           id="g122"><path
             id="path124"
             style="fill:#6b6a6a;fill-opacity:1;fill-rule:nonzero;stroke:none"
             d="M 0,0 H 2.664 L 7.426,-9.676 11.797,0 H 14.41 L 4.445,-21.066 H 1.838 l 4.359,8.837 z" /></g></g></g></g></svg>