<?xml version="1.0" standalone="no"?>
<!DOCTYPE svg PUBLIC "-//W3C//DTD SVG 20010904//EN"
 "http://www.w3.org/TR/2001/REC-SVG-20010904/DTD/svg10.dtd">
<svg version="1.0" xmlns="http://www.w3.org/2000/svg"
 width="98.000000pt" height="51.000000pt" viewBox="0 0 98.000000 51.000000"
 preserveAspectRatio="xMidYMid meet">

<g transform="translate(0.000000,51.000000) scale(0.100000,-0.100000)"
fill="#000000" stroke="none">
<path d="M308 394 c-18 -9 -32 -28 -39 -54 -18 -58 -2 -78 123 -155 56 -34 46
-85 -17 -85 -36 0 -82 38 -91 77 -11 43 -24 24 -24 -35 0 -64 6 -78 26 -61 10
8 23 7 50 -1 73 -25 154 25 154 95 0 39 -31 75 -91 105 -82 41 -103 80 -55
101 32 15 85 -13 99 -52 17 -44 27 -35 27 26 0 49 -12 73 -22 44 -2 -7 -12 -7
-31 0 -38 15 -77 13 -109 -5z"/>
<path d="M738 394 c-18 -9 -32 -28 -39 -54 -18 -58 -2 -78 123 -155 56 -34 46
-85 -17 -85 -36 0 -82 38 -91 77 -11 43 -24 24 -24 -35 0 -64 6 -78 26 -61 10
8 23 7 50 -1 73 -25 154 25 154 95 0 39 -31 75 -91 105 -82 41 -103 80 -55
101 32 15 85 -13 99 -52 17 -44 27 -35 27 26 0 49 -12 73 -22 44 -2 -7 -12 -7
-31 0 -38 15 -77 13 -109 -5z"/>
<path d="M98 390 c21 -9 22 -14 22 -143 0 -128 -1 -135 -22 -150 -22 -15 -18
-16 67 -16 72 0 86 2 67 11 -30 15 -33 33 -30 168 3 111 4 115 28 127 22 11
14 13 -65 12 -64 0 -83 -3 -67 -9z"/>
<path d="M528 390 c21 -9 22 -14 22 -143 0 -128 -1 -135 -22 -150 -22 -15 -18
-16 67 -16 72 0 86 2 67 11 -30 15 -33 33 -30 168 3 111 4 115 28 127 22 11
14 13 -65 12 -64 0 -83 -3 -67 -9z"/>
</g>
</svg>
