<?xml version="1.0" standalone="no"?>
<!DOCTYPE svg PUBLIC "-//W3C//DTD SVG 20010904//EN"
 "http://www.w3.org/TR/2001/REC-SVG-20010904/DTD/svg10.dtd">
<svg version="1.0" xmlns="http://www.w3.org/2000/svg"
 width="900.000000pt" height="900.000000pt" viewBox="0 0 900.000000 900.000000"
 preserveAspectRatio="xMidYMid meet">

<g transform="translate(0.000000,900.000000) scale(0.100000,-0.100000)"
fill="#000000" stroke="none">
<path d="M4145 8991 c-12 -5 -61 -12 -110 -15 -195 -14 -364 -42 -625 -103
-231 -55 -497 -143 -688 -229 -29 -13 -57 -24 -62 -24 -17 0 -392 -195 -478
-248 -46 -29 -85 -52 -87 -52 -8 0 -242 -161 -330 -228 -158 -119 -269 -215
-429 -372 -380 -372 -641 -727 -886 -1205 -88 -173 -217 -481 -250 -600 -4
-16 -15 -52 -25 -80 -27 -83 -78 -275 -101 -380 -67 -310 -67 -314 -68 -955 0
-396 4 -612 11 -645 6 -27 16 -84 23 -125 43 -279 150 -646 277 -955 64 -154
185 -400 237 -484 15 -22 26 -43 26 -46 0 -14 164 -264 249 -382 263 -360 597
-701 944 -961 101 -76 282 -200 332 -228 11 -6 52 -30 90 -54 74 -46 398 -213
475 -244 25 -10 59 -24 75 -31 17 -7 62 -25 100 -40 39 -15 81 -31 95 -37 32
-12 172 -58 280 -91 176 -53 482 -117 650 -136 52 -6 138 -16 190 -23 128 -16
695 -16 825 0 55 7 143 17 195 23 87 10 149 20 300 51 93 19 300 68 323 77 12
5 63 21 112 36 187 55 406 142 630 251 625 301 1192 769 1625 1339 74 98 255
365 274 405 4 8 12 24 19 35 187 307 366 738 463 1115 109 424 144 703 144
1152 0 372 -21 593 -85 898 -8 36 -16 76 -18 90 -19 104 -140 510 -181 605 -8
17 -26 62 -42 100 -55 137 -151 340 -212 450 -19 33 -48 85 -64 115 -52 92
-209 329 -298 445 -272 359 -598 678 -966 947 -86 63 -306 205 -410 264 -168
96 -457 230 -659 306 -281 106 -691 208 -955 237 -52 6 -140 16 -195 22 -118
14 -711 22 -740 10z m572 -61 c160 -8 224 -14 413 -41 748 -105 1512 -439
2110 -922 163 -131 219 -183 382 -347 176 -178 268 -283 397 -455 81 -107 271
-387 271 -399 0 -3 17 -34 38 -68 59 -97 183 -348 241 -493 30 -71 59 -143 66
-160 58 -137 161 -507 198 -710 63 -344 71 -437 71 -830 0 -411 -14 -569 -85
-910 -33 -161 -124 -488 -158 -570 -5 -11 -21 -54 -36 -95 -15 -41 -38 -99
-51 -128 -13 -29 -24 -55 -24 -59 0 -18 -188 -386 -250 -488 -220 -364 -394
-588 -680 -876 -318 -320 -617 -548 -983 -752 -247 -137 -397 -205 -712 -321
-123 -45 -385 -116 -555 -151 -259 -53 -410 -72 -675 -86 -208 -11 -561 -1
-725 21 -586 80 -977 196 -1465 436 -724 355 -1362 934 -1799 1633 -42 66 -76
123 -76 126 0 3 -12 24 -26 47 -26 40 -174 332 -174 342 0 2 -16 39 -35 80
-19 42 -35 79 -35 82 0 3 -6 20 -14 37 -31 72 -40 98 -83 227 -46 140 -61 191
-94 325 -11 44 -24 96 -28 115 -19 74 -56 293 -83 490 -21 154 -17 811 5 975
24 174 35 241 59 360 47 231 72 327 142 535 59 175 71 208 79 216 4 4 7 13 7
20 0 7 18 52 40 99 22 47 40 89 40 91 0 11 147 299 173 341 15 24 27 45 27 48
0 11 158 256 229 355 69 96 112 151 256 327 81 99 400 412 530 519 459 380
996 668 1555 834 41 12 95 28 120 35 65 20 217 55 275 65 28 5 100 18 160 28
301 53 618 71 962 52z"/>
<path d="M4195 8880 c-311 -20 -640 -78 -955 -168 -99 -29 -261 -83 -305 -102
-11 -4 -72 -29 -135 -55 -595 -243 -1131 -622 -1584 -1120 -198 -217 -413
-510 -535 -729 -88 -157 -117 -213 -186 -356 -39 -80 -102 -228 -116 -270 -4
-14 -22 -63 -39 -110 -77 -207 -145 -465 -189 -720 -50 -292 -56 -367 -55
-755 0 -326 3 -389 22 -525 30 -210 38 -262 57 -355 10 -44 21 -98 25 -120 23
-108 113 -399 167 -540 8 -22 19 -49 23 -60 4 -11 29 -69 55 -130 225 -525
544 -987 961 -1396 257 -252 469 -418 779 -611 167 -104 406 -227 600 -308
602 -251 1259 -365 1904 -331 209 11 253 15 466 47 163 25 431 84 560 124 501
156 898 350 1295 633 252 180 337 253 585 501 406 407 726 888 942 1416 8 19
18 44 23 55 50 117 126 356 171 540 39 157 55 233 73 345 45 282 50 347 50
720 0 373 -5 438 -50 720 -14 88 -20 118 -44 225 -51 227 -115 440 -190 632
-34 86 -37 93 -74 176 -14 32 -26 60 -26 63 0 6 -119 243 -150 299 -203 362
-432 667 -720 956 -193 193 -237 234 -355 329 -614 496 -1317 812 -2080 934
-306 48 -658 65 -970 46z m659 -70 c160 -18 330 -41 376 -51 25 -5 90 -19 145
-30 55 -12 111 -24 125 -26 14 -3 45 -11 70 -18 25 -7 65 -18 90 -25 128 -37
372 -121 435 -150 11 -5 54 -23 95 -40 122 -52 357 -172 495 -255 326 -195
614 -423 885 -701 238 -244 403 -455 592 -759 76 -122 105 -175 189 -345 39
-80 75 -152 79 -161 7 -13 49 -116 80 -194 4 -11 13 -33 20 -50 18 -46 85
-253 105 -325 9 -36 21 -76 25 -90 5 -14 16 -59 25 -100 9 -41 20 -93 25 -115
118 -518 118 -1207 0 -1750 -34 -157 -43 -193 -50 -215 -4 -14 -16 -54 -25
-90 -26 -98 -92 -296 -125 -375 -4 -11 -27 -67 -51 -125 -75 -183 -201 -423
-321 -613 -425 -673 -1021 -1217 -1714 -1565 -143 -72 -270 -132 -280 -132 -3
0 -20 -6 -37 -14 -18 -7 -52 -21 -77 -31 -25 -9 -54 -21 -65 -26 -24 -10 -242
-81 -305 -99 -25 -7 -65 -18 -90 -25 -25 -7 -56 -15 -70 -18 -14 -2 -70 -14
-125 -26 -188 -40 -310 -59 -525 -80 -134 -14 -621 -14 -748 -1 -147 16 -331
40 -384 51 -185 36 -342 72 -433 99 -65 20 -281 91 -300 99 -11 5 -54 21 -95
36 -190 71 -460 207 -685 345 -517 317 -1005 791 -1347 1310 -353 537 -593
1182 -672 1810 -33 266 -38 365 -33 630 7 346 19 456 79 765 125 648 405 1265
812 1795 407 529 951 974 1541 1259 129 63 210 99 260 118 22 8 49 19 60 24
50 22 206 76 305 106 30 9 66 19 80 23 24 7 116 32 190 50 31 8 91 21 240 50
52 10 247 36 365 49 116 12 663 13 769 1z"/>
<path d="M4490 8760 c0 -5 9 -12 20 -15 11 -3 23 -18 26 -32 7 -28 -13 -505
-23 -528 -2 -8 -14 -17 -25 -21 -11 -3 -16 -10 -12 -14 10 -10 174 -18 174 -9
0 3 -9 14 -20 24 -18 16 -20 31 -20 119 0 56 4 107 9 115 5 8 30 14 64 16 61
2 101 25 139 78 19 27 23 45 23 109 0 71 -2 79 -30 107 -16 17 -45 35 -65 40
-52 13 -260 22 -260 11z m235 -74 c71 -76 49 -217 -39 -246 -66 -21 -69 -13
-61 134 4 72 9 134 12 139 11 19 58 5 88 -27z"/>
<path d="M3970 8590 c-25 -5 -67 -11 -94 -15 l-49 -7 25 -21 c21 -18 27 -34
31 -82 3 -33 13 -120 22 -194 15 -123 15 -135 0 -151 -16 -18 -6 -38 13 -26 4
2 57 10 118 16 60 7 112 17 116 24 10 15 10 64 -1 70 -4 3 -13 -5 -19 -19 -8
-18 -22 -25 -58 -31 -41 -6 -50 -4 -65 15 -18 22 -36 138 -25 166 6 17 91 22
101 5 14 -22 26 -8 23 28 -2 27 -7 36 -18 33 -8 -2 -38 -6 -66 -9 -60 -5 -61
-4 -66 93 l-3 60 54 3 c30 2 59 -2 64 -7 19 -19 28 -12 25 22 -3 30 -6 32 -43
34 -22 0 -60 -2 -85 -7z"/>
<path d="M5003 8573 c26 -30 25 -40 -30 -336 -9 -52 -22 -91 -30 -94 -23 -9
-14 -31 15 -37 81 -16 102 -18 102 -8 0 6 -5 14 -11 18 -8 5 -10 30 -6 77 7
79 23 105 54 89 20 -11 31 -30 60 -105 27 -71 65 -113 115 -125 53 -14 67 -2
30 25 -28 21 -112 177 -112 209 0 9 18 34 39 56 59 58 65 134 15 180 -27 24
-70 39 -139 48 -33 4 -73 11 -90 15 -29 8 -30 8 -12 -12z m180 -74 c24 -29 22
-105 -3 -146 -17 -28 -25 -33 -59 -33 -22 0 -43 5 -46 11 -6 9 10 149 21 188
6 20 65 6 87 -20z"/>
<path d="M3585 8528 c-22 -6 -46 -12 -53 -14 -9 -3 -5 -11 13 -26 19 -17 30
-42 42 -91 8 -38 11 -72 7 -77 -14 -12 -182 -52 -192 -46 -6 3 -18 40 -27 81
-13 60 -14 79 -4 91 6 8 9 17 6 21 -6 5 -25 1 -119 -24 -22 -5 -24 -23 -3 -23
22 0 29 -20 79 -218 34 -137 44 -188 36 -202 -14 -27 -12 -33 8 -25 9 4 39 11
66 16 61 10 65 14 35 38 -16 12 -29 38 -38 73 -7 29 -17 66 -23 81 -14 37 -7
43 82 67 87 23 119 25 124 8 24 -83 38 -173 28 -188 -16 -26 -5 -30 40 -14 22
8 51 14 64 14 12 0 26 5 29 10 3 6 0 10 -8 10 -30 0 -37 18 -112 315 -20 80
-21 93 -9 113 13 20 13 22 -8 21 -13 -1 -41 -6 -63 -11z"/>
<path d="M5530 8434 c-109 -47 -174 -197 -141 -322 18 -64 82 -126 153 -147
163 -47 308 81 308 270 0 67 -3 77 -33 117 -64 85 -194 122 -287 82z m143 -28
c57 -24 97 -89 97 -157 0 -37 -25 -130 -44 -165 -62 -114 -158 -125 -232 -28
-25 32 -28 44 -27 112 1 108 40 192 107 233 37 23 56 24 99 5z"/>
<path d="M3077 8383 c-4 -3 -73 -32 -155 -64 -144 -57 -147 -59 -144 -86 5
-39 18 -49 32 -24 12 23 94 66 108 57 5 -3 26 -47 46 -98 21 -51 44 -106 51
-123 7 -16 19 -48 26 -70 7 -22 17 -45 22 -52 4 -6 5 -24 1 -39 -6 -24 -5 -26
11 -20 11 4 41 14 67 23 51 16 60 28 28 36 -21 5 -44 51 -110 217 -22 58 -46
115 -52 127 -14 29 0 46 52 62 31 9 44 9 59 -1 28 -17 35 -5 16 31 -14 29 -42
40 -58 24z"/>
<path d="M5980 8095 c-67 -101 -131 -187 -141 -190 -30 -10 -22 -23 28 -45 51
-22 60 -21 43 7 -10 16 -4 31 41 103 54 87 85 127 93 119 2 -2 0 -38 -4 -79
-12 -101 -12 -217 0 -225 5 -3 62 40 126 95 115 99 143 117 129 83 -4 -10 -20
-54 -37 -98 -16 -44 -36 -96 -45 -117 -8 -20 -13 -41 -9 -46 8 -13 97 -55 103
-48 2 2 -3 16 -12 30 -9 14 -14 30 -10 36 6 9 134 383 138 404 1 5 -3 10 -8
12 -11 4 -54 -30 -203 -163 -45 -40 -87 -73 -93 -73 -10 0 -6 178 7 323 4 45
2 57 -9 57 -8 0 -69 -83 -137 -185z"/>
<path d="M4315 8064 c-185 -12 -404 -39 -525 -64 -361 -76 -624 -167 -925
-320 -177 -90 -212 -111 -348 -202 -234 -156 -356 -256 -558 -458 -287 -285
-487 -561 -676 -930 -104 -202 -239 -571 -273 -745 -4 -22 -17 -83 -28 -135
-21 -96 -42 -237 -61 -406 -14 -117 -14 -477 -1 -602 29 -267 77 -527 125
-682 125 -394 231 -629 415 -921 71 -113 219 -318 245 -339 8 -7 15 -19 15
-26 0 -11 -18 -14 -75 -14 -102 0 -140 -20 -353 -191 -95 -77 -178 -139 -185
-139 -7 0 -18 5 -25 12 -6 6 -14 9 -18 6 -6 -7 105 -148 117 -148 5 0 6 13 3
28 -5 25 1 35 58 84 137 121 306 250 358 275 38 18 73 26 112 27 l57 1 130
-136 c298 -312 648 -567 1038 -755 84 -41 157 -74 163 -74 6 0 18 -4 28 -10
83 -48 424 -151 657 -199 414 -86 977 -86 1375 -1 245 52 456 115 645 192 890
362 1606 1072 1968 1953 44 107 102 269 117 330 5 17 17 62 28 100 24 84 66
282 82 385 40 266 50 617 26 862 -23 224 -42 336 -93 543 -267 1090 -1069
2013 -2118 2438 -321 130 -654 212 -1000 247 -106 10 -416 19 -500 14z m540
-84 c291 -38 477 -79 720 -158 940 -307 1746 -1052 2125 -1967 5 -11 15 -36
23 -55 95 -225 186 -566 217 -815 28 -222 32 -298 27 -557 -5 -253 -9 -308
-38 -488 -35 -224 -126 -553 -199 -725 -5 -11 -16 -38 -25 -60 -44 -108 -194
-394 -266 -510 -392 -626 -1004 -1136 -1669 -1393 -205 -79 -343 -123 -490
-156 -41 -10 -93 -21 -115 -26 -37 -9 -105 -19 -325 -51 -116 -17 -605 -17
-735 0 -488 64 -837 169 -1223 368 -541 277 -989 679 -1328 1190 -52 78 -94
143 -94 146 0 2 -22 42 -48 88 -64 113 -131 251 -182 379 -12 30 -26 66 -32
80 -17 43 -79 233 -95 290 -92 341 -124 579 -124 938 0 347 37 632 116 912 7
25 18 65 25 90 14 49 38 123 50 155 4 11 14 38 23 60 47 125 78 195 144 329
41 83 77 155 82 160 5 6 23 38 41 71 43 80 188 292 259 380 281 351 583 618
946 838 233 141 469 250 710 329 125 40 301 88 395 106 30 6 80 16 112 22 67
13 194 28 333 40 124 10 532 4 640 -10z"/>
<path d="M3058 7131 c-74 -38 -113 -65 -165 -115 -59 -56 -55 -106 8 -106 49
0 243 -38 309 -60 36 -12 117 -48 181 -80 192 -97 304 -170 419 -276 l61 -57
117 33 c120 34 199 69 228 101 14 16 15 21 4 34 -14 16 -66 42 -133 66 -73 26
-82 58 -30 120 37 43 22 53 -63 41 -38 -5 -84 -16 -101 -23 -25 -10 -36 -10
-44 -2 -17 17 -2 77 26 112 31 36 31 47 3 55 -41 10 -65 7 -170 -28 -133 -44
-139 -41 -112 68 l7 29 -46 -6 c-26 -4 -74 -20 -107 -37 -96 -48 -106 -41 -68
49 29 70 20 79 -68 64 -36 -6 -89 -23 -118 -37 -29 -14 -56 -26 -60 -26 -4 0
-6 23 -4 51 2 29 -1 53 -7 55 -5 2 -36 -9 -67 -25z"/>
<path d="M2671 7089 c-27 -29 -51 -135 -51 -228 0 -96 -7 -106 -87 -116 -54
-7 -109 -23 -160 -48 -25 -11 -32 -52 -10 -60 6 -2 57 -2 112 1 55 2 133 -1
174 -7 80 -13 87 -11 144 42 33 31 35 68 7 108 -26 36 -46 113 -53 206 -5 67
-27 123 -48 123 -4 0 -17 -9 -28 -21z"/>
<path d="M5235 6963 c-68 -10 -224 -56 -284 -84 -232 -107 -425 -343 -516
-628 -13 -42 -27 -93 -31 -114 -9 -51 -27 -67 -78 -67 -27 0 -48 -6 -56 -15
-29 -35 2 -40 253 -43 133 -2 248 -5 255 -7 6 -2 12 -13 12 -24 0 -11 -6 -23
-12 -28 -7 -4 -125 -10 -263 -13 l-250 -5 0 -55 0 -55 350 -2 c370 -3 399 -6
393 -47 -3 -21 -9 -21 -373 -26 l-370 -5 0 -70 0 -70 200 -6 c110 -4 317 -7
461 -8 187 -1 263 -4 272 -13 10 -10 17 -44 10 -50 -2 -1 -214 -5 -473 -8
l-470 -5 0 -70 0 -70 577 -5 c414 -4 580 -8 588 -16 7 -7 10 -20 8 -30 -3 -18
-28 -19 -588 -24 l-585 -5 0 -75 0 -75 717 -5 c669 -5 718 -6 735 -23 14 -13
15 -21 7 -35 -10 -16 -70 -17 -935 -17 -849 0 -928 1 -971 17 -119 44 -194 88
-290 170 -31 26 -59 48 -61 48 -3 0 -32 -33 -64 -73 -99 -122 -224 -267 -232
-267 -9 0 -41 34 -41 43 0 8 255 346 375 497 154 195 212 269 347 447 l130
172 -33 48 c-35 51 -174 200 -299 321 -91 89 -190 162 -219 162 -33 0 -53 -39
-41 -80 6 -19 10 -59 10 -89 0 -181 -101 -238 -413 -233 l-159 2 -43 -30 c-23
-16 -55 -44 -70 -61 -25 -30 -37 -54 -80 -156 -32 -76 -113 -133 -243 -169
-128 -36 -196 -134 -238 -344 -15 -78 -17 -210 -15 -1585 1 -825 4 -1501 5
-1502 2 -2 3648 -4 4754 -3 l52 0 0 1239 0 1238 -42 48 c-99 113 -267 181
-553 226 -127 19 -165 35 -165 65 0 35 113 74 215 74 76 0 169 -16 313 -54
122 -33 143 -25 103 40 -30 49 -111 123 -181 164 -93 56 -168 81 -340 114
-215 42 -270 61 -244 85 14 13 175 50 267 62 44 6 84 12 89 15 20 13 192 3
283 -15 55 -12 108 -21 118 -21 33 0 17 35 -44 92 -153 146 -382 228 -639 228
-90 0 -243 -18 -302 -36 -35 -10 -18 24 33 70 135 121 398 196 688 196 162 0
191 5 190 29 -1 40 -167 130 -304 165 -113 29 -289 35 -399 15 -128 -24 -308
-90 -375 -138 -31 -23 -61 -27 -61 -11 0 23 69 117 122 166 101 96 249 153
571 221 39 8 46 31 16 54 -40 30 -178 70 -283 81 -173 17 -398 -16 -566 -85
-41 -17 -123 -61 -182 -98 -186 -118 -204 -124 -194 -56 4 23 19 62 33 87 34
58 140 162 231 225 93 65 91 80 -8 81 -41 1 -88 -1 -105 -3z m1574 -2152 c22
-14 19 -151 -4 -167 -13 -10 -92 -13 -316 -14 -268 0 -303 -2 -341 -19 -71
-31 -147 -131 -151 -199 l-2 -37 405 -3 c222 -1 408 -6 413 -11 5 -5 10 -40
11 -77 4 -112 37 -104 -454 -104 l-420 0 0 -115 0 -115 395 -1 c471 -2 451 -1
465 -15 13 -13 18 -144 6 -162 -5 -9 -58 -12 -179 -12 -95 0 -178 -4 -185 -8
-9 -6 -12 -36 -10 -112 l3 -104 60 -35 c118 -68 258 -240 305 -373 33 -92 40
-166 40 -399 0 -268 4 -259 -99 -259 -76 0 -91 9 -91 56 0 68 23 64 -350 64
-186 0 -345 3 -354 6 -14 5 -16 56 -16 463 0 342 3 460 12 469 18 18 143 16
162 -4 14 -13 16 -62 16 -380 l0 -365 58 3 57 3 0 485 0 485 -155 0 -154 0 -7
-40 c-4 -22 -12 -83 -19 -135 -25 -202 -52 -339 -109 -555 -13 -48 -100 -261
-133 -323 -52 -98 -118 -210 -132 -221 -9 -8 -55 -11 -131 -9 -97 3 -120 6
-128 20 -9 13 -3 25 29 60 45 49 146 190 181 253 178 317 251 664 272 1301 10
282 11 292 40 378 45 134 124 236 224 287 83 43 127 48 457 48 173 0 321 -3
329 -8z m-4391 -88 c2 -51 8 -85 16 -92 8 -7 93 -12 227 -13 l214 -3 0 -85 0
-85 -217 -5 c-138 -3 -221 -9 -228 -16 -6 -6 -10 -39 -8 -80 l3 -69 214 -3
c138 -1 219 -6 228 -13 20 -17 18 -165 -3 -173 -9 -3 -107 -6 -219 -6 -141 0
-206 -3 -211 -11 -4 -7 56 -74 148 -166 l155 -154 604 5 604 6 149 149 c87 87
146 153 142 160 -5 7 -73 11 -215 11 -148 0 -210 3 -219 12 -7 7 -12 41 -12
85 0 61 3 74 19 83 12 6 102 10 224 10 178 0 206 2 211 16 11 29 7 132 -6 141
-7 4 -110 10 -228 13 l-215 5 -3 73 c-2 46 2 79 9 88 9 11 53 14 219 14 167 0
210 3 219 14 7 9 11 41 10 80 -1 41 3 71 11 81 18 21 142 21 164 -1 14 -13 16
-64 16 -400 0 -314 -3 -390 -14 -412 -8 -15 -55 -67 -105 -116 -108 -108 -108
-116 13 -116 50 0 87 -5 94 -12 9 -9 12 -161 12 -624 0 -544 -2 -614 -16 -628
-19 -20 -144 -22 -162 -4 -9 9 -12 141 -12 534 0 427 -2 524 -14 533 -10 8
-256 10 -912 9 l-899 -3 -3 -534 c-2 -413 -5 -537 -15 -543 -16 -10 -138 -10
-155 0 -10 7 -12 141 -10 638 l3 629 90 3 c49 2 94 7 100 13 6 6 -27 45 -93
112 l-102 102 0 411 c0 226 3 414 7 418 4 4 43 5 88 4 l80 -3 3 -82z m2310 75
c7 -7 12 -34 12 -60 0 -57 24 -221 44 -304 34 -142 93 -261 168 -337 90 -92
93 -87 91 123 -2 166 -21 335 -54 475 -7 28 -12 64 -13 80 l-1 30 81 3 c92 3
100 -2 122 -88 26 -101 62 -440 62 -592 0 -60 2 -68 19 -68 11 0 43 22 73 49
113 104 200 334 215 571 3 52 10 101 16 108 13 16 149 16 165 0 33 -33 0 -287
-59 -470 -49 -148 -149 -307 -240 -379 -22 -17 -77 -50 -122 -73 l-82 -41 -7
-105 c-8 -138 -40 -344 -72 -480 -21 -86 -20 -90 10 -90 37 0 143 109 183 189
44 86 71 196 79 316 l7 100 83 3 c78 3 83 2 93 -21 16 -36 -5 -233 -36 -342
-33 -113 -83 -212 -147 -291 -90 -112 -168 -154 -338 -182 l-45 -7 -60 -120
c-33 -66 -75 -153 -93 -192 -18 -40 -44 -86 -58 -103 -26 -30 -26 -30 -134
-30 -74 0 -111 4 -118 13 -8 9 9 43 64 129 41 64 103 167 139 229 l65 111 -79
77 c-145 141 -206 301 -226 593 -8 131 -4 138 84 138 43 0 72 -5 79 -12 5 -7
12 -65 15 -128 3 -63 12 -149 21 -190 31 -143 119 -280 180 -280 19 0 26 9 39
53 29 98 47 202 72 425 21 184 20 203 -6 209 -36 10 -109 52 -155 89 -162 134
-285 438 -309 767 -4 62 -3 93 6 103 15 18 149 20 167 2z m-1498 -88 c47 -28
94 -50 105 -50 11 0 58 22 105 50 47 27 90 50 96 50 7 0 26 -16 43 -35 77 -88
77 -111 -3 -149 -75 -36 -76 -48 -5 -86 33 -18 63 -38 66 -46 8 -20 -70 -128
-95 -132 -11 -2 -39 8 -61 22 -22 14 -43 26 -46 26 -3 0 -23 11 -45 25 -22 14
-46 25 -54 25 -8 0 -52 -22 -99 -50 -47 -27 -94 -50 -106 -50 -14 0 -34 20
-62 62 -46 68 -45 81 9 109 62 32 85 50 74 61 -6 6 -34 22 -64 37 -34 17 -54
34 -56 46 -3 23 81 135 101 135 6 0 50 -23 97 -50z m4 -500 c48 -27 94 -50
102 -50 8 0 32 11 54 25 22 14 42 25 45 25 3 0 24 12 46 26 22 14 50 24 61 22
12 -2 38 -28 62 -61 48 -68 45 -78 -32 -120 -29 -16 -52 -34 -52 -42 0 -7 24
-25 54 -38 32 -15 57 -33 60 -45 8 -24 -47 -114 -80 -132 -21 -12 -23 -12
-154 64 -56 32 -70 32 -123 2 -23 -13 -63 -36 -90 -51 -26 -15 -54 -25 -61
-22 -23 9 -98 114 -94 132 2 9 28 30 58 46 33 17 55 36 55 45 0 10 -23 29 -57
47 -32 16 -58 37 -58 44 0 25 82 133 100 133 9 0 56 -22 104 -50z m590 -741
c14 -7 27 -19 28 -28 11 -52 -5 -73 -208 -273 -119 -117 -204 -209 -204 -220
0 -17 11 -18 145 -18 l145 0 59 63 c32 34 78 85 101 112 56 65 73 74 147 75
79 0 93 -6 93 -39 -1 -19 -40 -70 -150 -196 -83 -93 -157 -173 -165 -178 -9
-4 -88 -8 -178 -8 -89 0 -172 -2 -184 -6 -22 -5 -23 -9 -23 -132 0 -69 -4
-132 -8 -139 -7 -9 -77 -12 -318 -10 l-309 3 -3 80 c-2 66 0 82 14 92 13 10
73 13 225 13 l207 0 4 35 c7 60 6 60 -181 57 -147 -3 -174 -1 -198 14 -48 29
-313 343 -313 370 0 39 142 59 192 26 15 -9 68 -65 118 -124 l92 -108 139 0
c138 0 139 0 139 23 0 16 -57 76 -205 216 -116 109 -208 204 -211 217 -9 36 4
74 29 84 34 14 951 13 981 -1z"/>
<path d="M6445 3287 c-3 -7 -4 -123 -3 -257 l3 -245 105 0 105 0 -1 120 c0
117 -1 122 -37 197 -22 46 -60 102 -93 138 -57 61 -71 70 -79 47z"/>
<path d="M3173 3324 c-7 -3 -13 -14 -13 -23 0 -22 152 -171 175 -171 28 0 176
150 173 175 -3 19 -10 20 -163 22 -88 1 -166 -1 -172 -3z"/>
<path d="M2991 6788 c-10 -27 9 -72 34 -82 49 -18 85 4 85 53 0 48 -103 72
-119 29z"/>
<path d="M2880 6748 c-23 -39 -24 -44 -8 -88 10 -30 8 -39 -17 -87 -27 -49
-28 -55 -16 -90 23 -67 37 -80 123 -113 113 -44 178 -49 246 -20 75 32 112 78
112 138 -1 90 -46 206 -78 200 -14 -3 -16 -14 -14 -73 3 -64 2 -72 -22 -94
-21 -20 -32 -23 -70 -19 -54 6 -136 45 -136 64 0 10 14 14 53 14 35 0 60 6 76
19 31 24 20 41 -28 41 -50 0 -134 26 -154 47 -8 10 -17 33 -19 52 -4 46 -23
50 -48 9z"/>
<path d="M2590 6533 c-14 -2 -43 -10 -65 -17 -22 -8 -56 -17 -76 -20 -51 -9
-209 -88 -243 -122 -64 -64 -84 -169 -47 -250 42 -91 137 -164 215 -164 76 0
172 78 220 180 26 56 61 103 151 205 47 55 49 58 34 83 -21 38 -116 112 -142
111 -12 -1 -33 -4 -47 -6z"/>
<path d="M3988 5978 c-40 -51 -85 -109 -100 -128 -14 -19 -101 -132 -192 -250
-91 -118 -166 -222 -166 -231 0 -22 142 -126 225 -164 102 -47 190 -66 318
-68 l112 -2 3 468 2 467 -64 0 -65 0 -73 -92z"/>
<path d="M2280 7990 c-47 -27 -88 -50 -92 -50 -18 0 -6 -18 15 -24 17 -4 46
-41 99 -128 121 -196 138 -230 127 -250 -14 -26 -4 -23 68 19 62 37 79 56 46
52 -35 -3 -42 2 -82 62 -23 34 -41 63 -41 65 0 2 11 11 24 19 23 15 28 14 105
-24 95 -48 147 -53 201 -19 l35 22 -50 7 c-28 3 -90 23 -139 44 l-88 38 6 54
c11 90 -42 163 -116 163 -22 0 -63 -17 -118 -50z m144 -38 c51 -47 61 -119 19
-152 -14 -11 -31 -19 -37 -17 -18 5 -115 159 -109 173 13 35 85 33 127 -4z"/>
<path d="M6595 7921 c-58 -26 -102 -67 -135 -125 -26 -44 -30 -62 -30 -124 0
-86 12 -115 74 -169 91 -80 212 -78 307 6 127 112 136 278 20 370 -79 63 -160
77 -236 42z m199 -66 c69 -69 50 -186 -50 -304 -95 -113 -244 -62 -244 83 0
93 108 250 176 258 53 6 86 -4 118 -37z"/>
<path d="M1973 7761 c-56 -14 -121 -60 -155 -109 -29 -42 -32 -54 -32 -117 0
-58 5 -79 29 -124 70 -127 207 -182 315 -126 85 44 133 118 134 205 1 156
-157 304 -291 271z m107 -105 c53 -38 116 -124 130 -178 21 -77 -40 -148 -128
-148 -56 0 -106 24 -155 75 -101 103 -120 191 -56 255 16 16 39 31 52 33 48
10 112 -5 157 -37z"/>
<path d="M7040 7655 l-23 -25 29 0 c20 0 44 -12 72 -36 l43 -36 -37 -42 c-164
-185 -237 -256 -262 -256 -25 -1 -23 -4 33 -55 65 -60 80 -68 63 -31 -12 29
-16 23 145 203 55 62 106 114 113 117 19 7 87 -72 81 -95 -7 -25 5 -24 31 4
25 27 28 43 8 54 -18 11 -185 162 -216 196 -30 34 -50 34 -80 2z"/>
<path d="M1508 7366 c-49 -51 -88 -96 -88 -100 0 -3 10 -4 23 -1 18 5 48 -19
169 -135 107 -102 148 -148 150 -167 3 -27 4 -26 53 26 28 29 52 57 53 62 5
12 -15 12 -23 -1 -3 -5 -10 -10 -15 -10 -14 0 -150 131 -150 144 0 7 13 25 29
40 23 22 36 27 55 22 33 -8 33 2 1 37 -26 27 -45 35 -45 17 0 -16 -61 -80 -76
-80 -18 0 -114 90 -114 106 0 21 79 77 100 71 11 -3 20 -2 20 3 0 11 -40 60
-48 59 -4 -1 -46 -43 -94 -93z"/>
<path d="M7430 7318 c0 -17 -43 -61 -150 -158 -127 -115 -153 -134 -177 -131
l-28 3 20 -22 c77 -86 95 -103 101 -97 4 4 3 12 -4 19 -18 18 -1 38 149 177
99 92 148 131 165 131 33 0 30 8 -18 57 -48 49 -58 52 -58 21z"/>
<path d="M7540 7046 c-209 -56 -280 -290 -128 -420 96 -82 227 -70 340 32 102
92 102 226 2 326 -61 61 -135 83 -214 62z m160 -63 c33 -19 70 -80 70 -115 0
-13 -12 -47 -26 -76 -58 -117 -210 -197 -292 -153 -56 30 -77 113 -47 185 33
79 165 176 238 176 16 0 42 -7 57 -17z"/>
<path d="M1181 6988 l-31 -42 30 -25 c27 -24 100 -141 100 -162 0 -5 -12 -9
-27 -9 -30 1 -154 23 -188 35 -17 5 -27 -3 -53 -39 -18 -24 -32 -47 -32 -51 0
-3 16 -3 36 1 47 9 251 -14 289 -32 56 -27 129 -89 135 -114 l6 -24 19 28 c11
15 33 43 49 62 31 37 28 56 -6 35 -18 -11 -28 -8 -89 34 -81 55 -93 70 -154
196 -33 68 -45 102 -41 122 8 39 -7 34 -43 -15z"/>
<path d="M939 6628 c-7 -13 -20 -36 -29 -53 -9 -16 -38 -69 -64 -117 -26 -48
-52 -90 -57 -93 -19 -12 -8 -44 22 -66 l31 -22 -6 31 c-5 22 -1 42 14 72 24
47 44 58 68 38 9 -8 42 -27 72 -43 153 -80 236 -132 245 -153 9 -21 25 -30 25
-14 0 5 16 34 35 67 20 32 33 60 31 62 -2 3 -15 -2 -28 -11 -26 -17 -24 -17
-188 73 -41 22 -99 53 -127 68 -37 19 -53 33 -53 47 0 24 46 86 65 86 27 0 25
19 -4 35 -38 19 -38 19 -52 -7z"/>
<path d="M7960 6591 c-239 -127 -356 -182 -372 -172 -11 7 -19 7 -23 1 -5 -9
-1 -19 42 -87 l17 -28 6 29 c4 24 19 38 89 78 46 26 87 48 90 48 3 0 17 9 31
20 27 21 50 26 50 10 0 -5 -11 -33 -24 -62 -38 -84 -126 -321 -126 -341 0 -9
5 -17 11 -17 6 0 96 43 200 96 144 73 196 95 214 90 32 -8 31 3 -2 59 -32 52
-40 55 -45 19 -3 -23 -22 -38 -123 -95 -110 -62 -145 -78 -145 -64 0 3 8 24
19 48 10 23 30 71 44 107 14 36 43 109 66 164 49 121 47 133 -19 97z"/>
<path d="M704 6173 c-8 -21 -25 -60 -36 -88 -10 -27 -24 -54 -29 -59 -5 -6 -9
-20 -9 -33 0 -20 3 -21 23 -12 19 9 52 -2 202 -65 108 -45 186 -84 194 -96 16
-23 31 -26 31 -6 0 8 18 54 40 101 46 99 48 118 18 139 -35 24 -53 21 -34 -6
10 -13 13 -31 9 -47 -7 -32 -41 -81 -54 -81 -6 0 -44 14 -85 31 -50 21 -74 36
-74 47 0 26 38 82 55 82 25 0 17 18 -15 35 -32 17 -50 13 -50 -10 0 -27 -32
-95 -44 -95 -23 0 -130 48 -134 60 -7 19 29 89 49 95 26 9 24 31 -3 39 -35 9
-37 8 -54 -31z"/>
<path d="M8113 5851 c-110 -28 -193 -124 -193 -224 0 -172 163 -279 334 -218
116 41 166 104 166 209 0 94 -38 165 -115 212 -35 22 -143 33 -192 21z m179
-71 c51 -15 80 -58 81 -120 1 -67 -36 -114 -126 -158 -55 -27 -79 -33 -136
-34 -101 -1 -141 34 -141 123 0 81 80 157 194 185 65 16 83 16 128 4z"/>
<path d="M546 5760 c-19 -63 -17 -81 8 -61 12 10 44 3 163 -34 183 -57 223
-72 246 -92 21 -20 26 -16 48 49 24 71 25 86 1 65 -10 -10 -27 -17 -38 -17
-40 0 -369 112 -386 131 -9 10 -18 19 -20 19 -1 0 -11 -27 -22 -60z"/>
<path d="M474 5513 c-77 -180 -32 -314 127 -374 64 -24 133 -24 189 2 89 40
132 102 152 218 14 80 8 93 -48 111 -43 14 -57 5 -28 -18 33 -26 42 -50 34
-93 -9 -48 -30 -80 -75 -114 -74 -57 -236 -40 -310 32 -32 31 -35 39 -35 89 0
74 28 128 75 145 43 16 44 25 4 33 -58 11 -68 8 -85 -31z"/>
<path d="M8464 5304 c-12 -13 -39 -24 -65 -28 -24 -4 -111 -18 -192 -32 -144
-25 -149 -26 -169 -8 -21 19 -21 19 -15 -11 4 -16 10 -51 13 -77 7 -50 18 -61
28 -30 5 14 27 24 84 36 109 25 125 21 136 -33 8 -36 7 -45 -7 -53 -29 -16
-19 -29 21 -26 41 3 39 -3 26 98 l-6 46 72 12 c39 7 75 10 80 7 14 -9 23 -106
11 -118 -17 -17 -13 -27 12 -27 44 0 47 10 32 95 -8 44 -18 99 -21 123 -4 23
-10 44 -13 45 -3 2 -15 -7 -27 -19z"/>
<path d="M495 5025 c-115 -44 -175 -189 -126 -301 35 -77 76 -113 166 -141 76
-24 161 -11 225 36 65 47 91 98 94 181 2 92 -52 173 -144 213 -58 26 -162 32
-215 12z m241 -98 c57 -29 79 -64 78 -119 0 -46 -4 -54 -41 -89 -48 -44 -94
-59 -183 -58 -115 1 -184 43 -196 120 -11 68 50 146 127 162 46 10 185 0 215
-16z"/>
<path d="M8148 4683 c-52 -6 -62 -24 -63 -107 0 -58 4 -78 24 -109 31 -50 85
-77 156 -77 75 0 118 24 207 115 76 78 117 101 162 89 74 -18 75 -140 1 -158
-44 -11 -27 -26 30 -26 l54 0 7 36 c26 138 -49 234 -172 221 -65 -7 -88 -21
-191 -118 -61 -58 -91 -80 -119 -85 -83 -15 -147 63 -109 135 15 30 29 39 100
66 l20 7 -20 8 c-21 9 -27 9 -87 3z"/>
<path d="M630 4461 c-58 -12 -81 -29 -175 -127 -81 -85 -93 -94 -126 -94 -48
0 -78 26 -86 72 -5 32 -1 41 24 65 16 15 38 33 48 40 17 10 12 12 -36 12 -30
1 -60 -4 -67 -11 -7 -7 -12 -39 -12 -73 0 -109 59 -173 159 -175 65 0 122 32
191 108 81 90 115 112 166 112 35 0 47 -5 68 -31 49 -58 28 -129 -44 -150 -69
-21 -48 -35 45 -30 53 3 65 21 65 101 0 54 -5 73 -26 106 -40 62 -114 91 -194
75z"/>
<path d="M8192 4254 c-89 -44 -132 -122 -135 -246 -2 -52 1 -62 22 -79 13 -10
37 -19 54 -19 l31 0 -32 29 c-27 25 -32 37 -32 76 0 105 83 175 207 175 83 0
132 -17 175 -60 35 -34 38 -42 38 -92 0 -68 -29 -116 -80 -134 -42 -14 -27
-24 41 -27 42 -2 44 -1 57 37 67 202 -27 355 -223 363 -59 3 -78 -1 -123 -23z"/>
<path d="M745 3804 c-258 -61 -275 -64 -308 -49 -17 7 -18 4 -12 -41 10 -65
11 -66 39 -41 16 15 68 33 152 55 71 18 132 32 137 32 17 0 4 -25 -51 -98
-132 -174 -202 -272 -202 -283 0 -11 49 -6 120 12 19 5 98 23 174 40 112 24
145 28 164 19 l25 -11 -7 48 c-8 60 -20 73 -43 45 -12 -14 -55 -31 -138 -52
-66 -18 -123 -34 -127 -36 -3 -2 -9 0 -13 6 -3 5 16 38 43 72 69 90 202 285
202 298 0 15 -44 11 -155 -16z"/>
<path d="M8017 3773 c-4 -27 -10 -59 -13 -72 -7 -23 -7 -23 20 -6 26 17 31 17
114 1 238 -48 298 -63 317 -82 21 -21 23 -18 36 50 11 62 8 76 -15 57 -15 -12
-64 -5 -241 34 -38 8 -83 18 -100 21 -44 8 -85 25 -85 35 0 5 -6 9 -14 9 -8 0
-15 -17 -19 -47z"/>
<path d="M7936 3450 c-44 -132 -43 -141 17 -155 l27 -7 -17 30 c-16 28 -16 35
-3 74 l15 43 51 -2 c27 -1 72 -11 98 -23 38 -16 47 -24 41 -38 -4 -9 -12 -29
-17 -44 -5 -16 -16 -28 -23 -28 -8 0 -17 -5 -20 -10 -6 -10 54 -42 66 -34 4 2
10 23 13 48 4 24 13 51 20 61 14 20 14 20 144 -21 27 -8 5 -78 -35 -111 l-27
-22 28 -10 c38 -15 56 -14 56 4 0 16 43 161 61 204 12 30 6 36 -20 19 -24 -15
-69 -5 -283 63 -96 30 -128 44 -133 59 -4 11 -9 20 -13 20 -4 0 -25 -54 -46
-120z"/>
<path d="M983 3395 c-14 -38 -20 -44 -206 -205 -86 -74 -157 -141 -157 -147 0
-10 55 -13 243 -13 203 0 246 -3 265 -16 27 -19 28 -9 2 50 -21 49 -27 54 -44
32 -11 -14 -107 -27 -124 -17 -9 5 -52 107 -52 122 0 3 27 28 61 55 66 53 67
59 36 135 l-13 34 -11 -30z m-89 -265 c9 -22 15 -44 11 -50 -8 -13 -148 -13
-143 0 3 10 98 88 109 89 3 1 13 -17 23 -39z"/>
<path d="M7846 3179 c-28 -59 -31 -84 -6 -54 18 22 29 20 148 -29 59 -24 115
-47 125 -50 45 -15 1 -34 -218 -96 -102 -28 -180 -59 -183 -71 -1 -9 24 -26
65 -46 106 -50 244 -114 291 -134 25 -11 46 -28 49 -39 8 -30 16 -24 38 27 11
26 21 51 23 55 2 3 -9 2 -25 -4 -24 -8 -46 -2 -157 44 -72 30 -131 59 -134 66
-2 6 9 14 25 18 15 3 80 22 143 41 63 19 140 41 170 49 75 19 102 32 95 44 -6
10 -54 33 -285 139 -67 30 -109 55 -116 69 -18 36 -19 35 -48 -29z"/>
<path d="M1210 2846 c0 -20 -12 -31 -67 -60 -37 -20 -74 -36 -83 -36 -8 0 -23
15 -33 33 -25 45 -65 67 -124 67 -60 0 -109 -28 -128 -74 -17 -41 -9 -70 50
-184 40 -76 52 -86 57 -49 2 18 38 40 182 113 124 63 186 89 203 86 l24 -5
-33 67 c-34 70 -48 82 -48 42z m-207 -71 c15 -13 27 -30 27 -37 0 -12 -158
-98 -180 -98 -17 0 -31 41 -25 71 9 39 76 89 119 89 18 -1 42 -11 59 -25z"/>
<path d="M1300 2666 c0 -15 -51 -93 -140 -212 -131 -176 -154 -214 -130 -214
8 0 199 45 404 94 52 13 63 13 88 0 32 -17 36 -7 10 27 -10 13 -21 32 -25 42
-8 20 -37 23 -37 3 0 -14 -34 -28 -96 -41 -29 -5 -34 -2 -69 49 -43 63 -42 65
29 141 20 21 36 42 36 47 0 14 -52 88 -61 88 -5 0 -9 -11 -9 -24z m-32 -266
c35 -46 29 -56 -43 -74 -35 -9 -67 -16 -70 -16 -9 0 -5 18 8 32 7 7 25 30 41
51 16 20 31 37 35 37 4 0 17 -13 29 -30z"/>
<path d="M7656 2670 c-67 -21 -122 -74 -165 -157 -28 -55 -27 -74 7 -106 41
-39 59 -35 32 7 -20 33 -20 37 -5 72 9 21 23 47 33 58 25 28 92 56 137 56 49
0 139 -41 183 -83 67 -64 79 -122 37 -192 -33 -58 -68 -79 -117 -72 -51 7 -46
-10 12 -42 l44 -24 39 44 c48 53 97 152 97 195 0 82 -70 183 -155 225 -46 23
-137 33 -179 19z"/>
<path d="M7316 2265 c-42 -52 -76 -101 -76 -109 0 -8 13 -24 29 -36 l30 -21
-6 34 c-4 28 0 40 27 70 18 21 38 37 45 37 19 0 145 -99 145 -114 0 -20 -70
-78 -86 -72 -21 8 -17 -8 9 -32 26 -24 47 -29 47 -9 0 6 15 30 34 52 32 38 34
39 57 23 13 -9 42 -31 64 -50 l39 -35 -33 -41 c-23 -30 -40 -42 -59 -42 l-25
0 23 -25 c26 -27 45 -32 53 -12 2 6 37 52 76 101 72 90 86 116 52 94 -27 -17
-39 -10 -205 122 -110 87 -146 121 -146 138 0 12 -4 22 -9 22 -4 0 -43 -43
-85 -95z"/>
<path d="M7173 1740 c-33 -20 -63 -66 -63 -97 0 -44 61 -102 108 -103 55 0
112 56 112 110 0 34 -30 76 -67 94 -43 20 -51 20 -90 -4z"/>
<path d="M1671 1714 c-26 -22 -31 -33 -31 -70 0 -53 20 -87 60 -104 80 -33
163 36 145 121 -17 76 -112 105 -174 53z"/>
<path d="M2150 1532 c0 -4 5 -13 12 -20 13 -13 3 -30 -139 -217 -67 -89 -105
-131 -120 -133 -33 -5 -28 -18 15 -46 20 -13 43 -31 51 -40 15 -18 41 -22 41
-6 0 6 -4 10 -10 10 -27 0 11 72 87 168 l19 23 43 -31 c32 -23 42 -37 38 -51
-7 -25 5 -24 31 4 24 25 29 47 11 47 -18 0 -89 54 -89 68 0 17 78 122 91 122
6 0 28 -14 50 -32 27 -21 39 -39 39 -56 l0 -25 25 23 c14 13 25 28 25 34 -1 6
-39 38 -86 71 -47 33 -92 68 -101 78 -17 18 -33 23 -33 9z"/>
<path d="M6620 1525 c-42 -19 -86 -60 -106 -96 -12 -25 -11 -30 16 -68 31 -42
58 -56 45 -23 -22 53 -23 71 -5 100 54 88 173 17 222 -131 21 -65 22 -126 4
-247 -8 -52 -11 -99 -6 -104 10 -10 235 147 244 170 7 17 -25 97 -43 108 -7 5
-11 -4 -11 -26 0 -38 -16 -59 -82 -112 -56 -44 -71 -41 -55 12 6 20 11 89 11
152 1 104 -1 120 -24 164 -49 94 -133 135 -210 101z"/>
<path d="M6285 1311 c-22 -10 -56 -35 -75 -55 -34 -36 -34 -37 -18 -63 23 -39
38 -40 38 -3 0 41 39 80 79 80 20 0 42 -11 63 -29 29 -26 33 -35 32 -80 0 -32
-6 -57 -17 -69 -28 -31 -21 -41 27 -40 81 1 144 -54 153 -136 5 -42 3 -48 -30
-81 -42 -42 -92 -48 -122 -15 -42 47 -49 1 -7 -49 27 -32 30 -33 63 -22 55 18
96 48 129 92 26 36 30 51 30 104 0 48 -5 70 -22 95 -32 47 -68 71 -116 77 -45
6 -48 12 -31 62 25 71 -30 151 -103 151 -18 0 -51 -9 -73 -19z"/>
<path d="M2414 1230 c-83 -47 -144 -151 -144 -246 0 -123 147 -240 267 -214
61 14 95 33 137 76 59 60 79 109 80 191 1 64 -2 76 -29 115 -74 105 -207 138
-311 78z m217 -46 c36 -34 53 -92 44 -148 -9 -57 -68 -159 -112 -195 -91 -75
-213 -9 -213 114 0 87 80 228 145 256 38 17 104 3 136 -27z"/>
<path d="M5955 1145 c-22 -8 -55 -31 -72 -51 -30 -34 -33 -44 -33 -99 0 -68
21 -110 72 -148 49 -37 154 -18 172 30 10 25 -2 28 -34 10 -26 -16 -33 -16
-64 -3 -39 16 -96 103 -96 147 0 31 41 79 67 79 54 0 126 -90 158 -198 26 -86
27 -142 5 -222 -11 -41 -23 -86 -26 -100 l-5 -25 24 27 c68 74 100 281 61 396
-23 67 -75 129 -128 153 -49 22 -50 22 -101 4z"/>
<path d="M2894 1059 c13 -19 13 -27 -5 -73 -11 -28 -24 -60 -29 -71 -64 -144
-78 -251 -40 -305 22 -32 115 -80 152 -80 13 0 42 9 65 20 54 24 94 87 153
238 29 73 50 114 62 118 30 9 21 24 -28 44 -53 23 -74 26 -56 8 19 -19 15 -43
-29 -151 -84 -209 -97 -227 -168 -227 -63 0 -101 36 -101 96 0 60 94 302 128
331 l26 22 -39 16 c-22 8 -48 20 -57 25 -10 6 -25 10 -33 10 -14 0 -15 -2 -1
-21z"/>
<path d="M5576 939 c-53 -76 -65 -99 -49 -99 4 0 20 12 35 27 17 16 31 23 37
17 4 -5 29 -76 55 -159 26 -82 52 -163 57 -179 16 -50 11 -74 -17 -89 -33 -17
-14 -35 19 -19 12 6 47 18 77 27 89 27 88 26 51 38 -38 13 -46 33 -131 307
-23 74 -46 150 -51 167 -6 18 -14 35 -18 38 -5 2 -34 -32 -65 -76z"/>
<path d="M3386 888 c-2 -7 -16 -60 -31 -118 -74 -285 -81 -305 -105 -317 -27
-13 -27 -13 53 -33 52 -14 71 -8 42 14 -19 13 -18 17 9 142 36 164 34 160 47
147 6 -6 34 -57 63 -114 157 -310 160 -313 186 -199 38 170 91 345 111 366
l22 23 -29 6 c-16 4 -42 11 -58 16 -37 12 -44 5 -21 -21 17 -19 17 -24 -14
-157 -17 -75 -35 -141 -39 -145 -5 -5 -55 84 -111 197 -56 113 -106 205 -112
205 -5 0 -11 -6 -13 -12z"/>
<path d="M3889 762 l24 -19 -21 -198 c-15 -142 -25 -202 -36 -214 -22 -25 -20
-31 12 -31 15 0 60 -7 101 -15 146 -31 250 12 304 125 17 34 22 64 22 127 0
75 -2 85 -30 125 -53 75 -116 97 -320 113 l-80 6 24 -19z m209 -47 c83 -35
112 -85 112 -193 0 -110 -26 -164 -97 -201 -41 -21 -145 -7 -156 22 -2 7 -1
53 4 102 5 50 11 128 15 175 4 47 11 91 17 98 13 17 60 15 105 -3z"/>
<path d="M4875 762 c-49 -8 -92 -17 -94 -19 -3 -2 4 -10 16 -18 22 -15 26 -37
68 -363 3 -23 0 -52 -6 -63 -6 -11 -9 -22 -7 -24 7 -6 195 13 236 24 61 17
136 92 152 151 28 105 -6 235 -77 286 -64 47 -128 53 -288 26z m204 -56 c59
-38 91 -110 91 -205 0 -120 -44 -170 -151 -172 -75 -2 -68 -21 -104 255 -9 65
-14 125 -11 132 4 10 25 14 71 14 52 0 73 -5 104 -24z"/>
<path d="M4545 742 c-125 -3 -130 -5 -111 -34 11 -18 15 -67 16 -217 1 -171
-1 -196 -16 -212 -17 -19 -15 -20 117 -17 l134 3 3 40 3 40 -23 -23 c-18 -16
-36 -22 -71 -22 -60 0 -69 16 -65 118 l3 77 48 3 c35 2 49 -1 53 -12 3 -9 10
-16 14 -16 12 0 24 61 14 70 -5 5 -34 4 -64 -1 -30 -5 -58 -5 -63 0 -4 4 -9
41 -10 82 l-2 74 49 3 c33 2 53 -2 65 -12 10 -9 21 -13 24 -9 12 11 8 61 -5
64 -7 2 -58 3 -113 1z"/>
</g>
</svg>
