<?xml version="1.0" standalone="no"?>
<!DOCTYPE svg PUBLIC "-//W3C//DTD SVG 20010904//EN"
 "http://www.w3.org/TR/2001/REC-SVG-20010904/DTD/svg10.dtd">
<svg version="1.0" xmlns="http://www.w3.org/2000/svg"
 width="2000.000000pt" height="555.000000pt" viewBox="0 0 2000.000000 555.000000"
 preserveAspectRatio="xMidYMid meet">

<g transform="translate(0.000000,555.000000) scale(0.100000,-0.100000)"
fill="#CC3333" stroke="none">
<path d="M6307 5065 c-83 -23 -160 -68 -222 -130 -195 -195 -194 -514 3 -710
58 -59 168 -120 236 -133 26 -4 -37 -9 -173 -12 l-215 -5 -482 -1320 c-266
-726 -483 -1326 -483 -1332 -1 -17 834 -19 845 -2 3 6 224 606 489 1333 l483
1321 -137 5 c-100 4 -125 7 -95 12 116 21 269 141 328 256 146 288 -7 635
-315 717 -66 18 -197 18 -262 0z"/>
<path d="M8301 4710 c-11 -39 -13 -40 -56 -40 l-45 0 0 -134 0 -133 -31 -7
c-28 -5 -30 -8 -27 -43 3 -35 6 -38 31 -36 19 1 27 -3 27 -15 0 -44 -23 -151
-41 -191 l-19 -45 32 -33 33 -34 17 41 c23 54 48 178 48 240 0 44 2 50 21 50
21 0 21 -4 17 -95 l-4 -95 33 0 33 0 0 99 c0 79 3 100 15 105 14 5 15 -11 13
-127 l-3 -132 -44 4 c-37 2 -43 0 -37 -14 3 -9 6 -28 6 -41 0 -22 3 -24 56
-24 64 0 94 13 94 40 0 31 18 24 41 -15 20 -34 22 -34 49 -20 15 8 48 30 74
50 l47 36 31 -26 c31 -26 127 -79 133 -73 1 2 12 21 23 43 l20 41 -47 17 c-27
9 -60 26 -74 37 l-27 21 33 47 c17 26 43 71 56 100 24 50 24 52 6 72 -17 18
-31 20 -172 20 l-153 0 0 -35 c0 -19 5 -35 10 -35 6 0 21 -25 35 -55 13 -31
34 -69 45 -85 l20 -29 -32 -24 c-32 -24 -91 -57 -103 -57 -10 0 -5 279 5 285
6 3 10 22 10 41 0 19 -4 34 -10 34 -6 0 -10 45 -10 115 l0 115 -55 0 -56 0 17
31 c19 37 9 49 -42 49 -27 0 -32 -4 -43 -40z m99 -199 l0 -88 -31 -7 c-17 -3
-44 -6 -60 -6 l-29 0 0 95 0 95 60 0 60 0 0 -89z m330 -218 c-22 -42 -44 -73
-53 -73 -7 0 -43 62 -52 89 -6 20 -3 21 60 21 l65 0 -20 -37z"/>
<path d="M8306 4557 c-16 -12 -16 -15 5 -62 12 -28 23 -51 24 -53 5 -5 55 21
55 29 0 19 -45 99 -55 99 -6 0 -19 -6 -29 -13z"/>
<path d="M9070 4674 l0 -67 -50 6 -50 6 0 -44 0 -45 95 0 c52 0 95 -3 95 -6 0
-31 -96 -142 -163 -188 l-55 -38 21 -37 c11 -20 22 -38 24 -40 2 -2 21 10 43
28 l40 32 0 -141 0 -140 45 0 45 0 0 150 c0 83 3 150 6 150 4 0 27 -19 51 -41
l45 -41 23 38 22 39 -26 20 c-14 11 -43 35 -63 54 l-38 33 19 27 c10 14 32 54
49 87 l31 61 -22 20 c-16 15 -31 19 -59 16 l-38 -5 0 66 0 66 -45 0 -45 0 0
-66z"/>
<path d="M9410 4630 l0 -110 -70 0 -70 0 0 -45 0 -45 70 0 70 0 0 -155 0 -155
-90 0 -90 0 0 -47 0 -48 230 0 230 0 0 48 0 47 -95 0 -95 0 0 155 0 155 85 0
85 0 0 45 0 45 -86 0 -86 0 4 110 3 110 -47 0 -48 0 0 -110z"/>
<path d="M10980 4679 l0 -60 -90 3 -90 3 0 -42 0 -43 90 0 90 0 0 -60 0 -60
-105 0 -105 0 0 -40 0 -40 85 0 c56 0 85 -4 85 -11 0 -6 -21 -56 -47 -110 -48
-104 -47 -103 -116 -102 -17 0 -18 -6 -12 -46 4 -25 8 -46 8 -47 4 -3 309 35
361 45 33 6 60 10 61 8 2 -1 10 -17 19 -34 9 -18 19 -33 23 -33 7 0 73 40 73
45 0 11 -73 127 -151 238 -4 5 -23 0 -43 -10 l-36 -18 35 -49 c41 -58 42 -64
13 -71 -44 -10 -178 -21 -178 -15 0 4 15 41 34 81 19 41 38 87 41 102 l7 27
139 0 139 0 0 40 0 40 -120 0 -120 0 0 60 0 60 105 0 105 0 0 43 0 42 -105 -3
-105 -3 0 60 0 61 -45 0 -45 0 0 -61z"/>
<path d="M10623 4701 l-22 -28 42 -31 c23 -17 54 -40 69 -52 l28 -21 25 28
c13 15 25 31 25 36 0 10 -119 97 -134 97 -7 0 -22 -13 -33 -29z"/>
<path d="M11687 4603 c-6 -155 -27 -222 -101 -332 -46 -68 -118 -134 -191
-176 -17 -10 -16 -14 12 -52 l30 -42 49 33 c105 72 195 187 240 310 18 49 24
57 30 41 35 -96 51 -127 89 -180 45 -63 115 -134 176 -178 l35 -27 32 45 31
44 -48 30 c-77 50 -174 158 -216 240 -44 89 -65 178 -65 289 l0 82 -49 0 -48
0 -6 -127z"/>
<path d="M8553 4650 c-2 -70 -11 -99 -43 -135 -18 -19 -17 -21 11 -55 30 -34
30 -35 45 -15 32 41 55 98 61 146 6 48 7 49 39 49 l34 0 0 -76 c0 -107 6 -114
89 -114 81 0 92 9 99 79 4 47 3 50 -27 65 -30 16 -31 16 -31 -6 0 -43 -12 -68
-31 -68 -17 0 -19 9 -19 100 l0 100 -112 0 -113 0 -2 -70z"/>
<path d="M9785 4355 l0 -355 48 0 c40 0 47 3 47 20 0 19 7 20 255 20 248 0
255 -1 255 -20 0 -17 7 -20 43 -20 l42 0 0 355 0 355 -345 0 -345 0 0 -355z
m605 20 l0 -255 -255 0 -255 0 0 255 0 255 255 0 255 0 0 -255z"/>
<path d="M10188 4568 l-3 -43 -138 0 -137 0 0 -37 0 -38 140 0 141 0 -3 -112
-3 -113 -58 -3 c-56 -3 -57 -3 -51 -30 12 -57 9 -55 91 -50 102 7 103 8 103
175 l0 133 45 0 45 0 0 40 0 40 -45 -7 -45 -6 0 47 0 46 -39 0 c-40 0 -40 0
-43 -42z"/>
<path d="M9992 4418 c-18 -11 -32 -21 -32 -23 0 -2 16 -27 36 -56 20 -30 40
-64 45 -77 l9 -22 35 22 c19 13 35 26 35 31 0 10 -47 85 -75 118 l-22 27 -31
-20z"/>
<path d="M10590 4509 c-12 -16 -21 -32 -19 -33 2 -2 34 -26 71 -54 l67 -51 21
29 c11 15 20 33 20 39 0 11 -67 63 -112 87 -25 13 -28 12 -48 -17z"/>
<path d="M7344 4431 c-2 -2 -4 -25 -4 -50 l0 -46 365 0 365 0 0 50 0 50 -361
0 c-198 0 -363 -2 -365 -4z"/>
<path d="M10680 4298 c0 -7 -24 -61 -53 -120 l-53 -108 33 -32 c18 -17 34 -30
37 -27 9 10 42 80 77 164 l37 89 -33 23 c-39 26 -45 28 -45 11z"/>
<path d="M2182 4003 c-16 -43 -208 -565 -427 -1161 -219 -595 -399 -1081 -400
-1080 -2 2 2 33 7 70 21 139 -38 304 -146 412 -261 260 -690 162 -826 -189
-33 -83 -33 -242 -1 -329 112 -308 475 -433 747 -258 63 41 133 114 165 172
26 47 17 13 -32 -119 -22 -57 -38 -105 -37 -106 2 -2 52 1 112 6 191 15 410
80 570 169 252 139 482 380 600 630 33 70 686 1832 686 1851 0 5 -217 9 -494
9 l-494 0 -30 -77z"/>
<path d="M4605 4063 c-3 -10 -218 -605 -477 -1323 -259 -718 -473 -1311 -475
-1318 -4 -10 44 -12 232 -10 l237 3 63 175 62 175 142 3 c77 1 141 -1 141 -5
0 -5 -27 -83 -60 -173 -33 -91 -60 -168 -60 -172 0 -5 105 -8 234 -8 l234 0
15 43 c8 23 207 575 442 1227 235 652 445 1233 466 1293 l38 107 -613 0 c-575
0 -614 -1 -621 -17z m511 -680 c-3 -10 -84 -234 -179 -498 l-173 -480 -142 -3
c-78 -1 -142 -1 -142 1 0 4 329 919 349 970 l11 27 140 0 c130 0 141 -1 136
-17z"/>
<path d="M3287 4063 c-13 -22 -589 -1634 -586 -1638 3 -2 138 -8 301 -12 l296
-8 -62 -165 -61 -165 -301 4 -301 3 -11 -29 c-133 -369 -232 -645 -232 -649 0
-2 276 -4 614 -4 458 0 617 3 622 12 4 6 141 383 305 837 l297 826 -329 3
c-181 1 -329 5 -329 8 0 2 28 80 62 171 l61 166 328 -6 327 -6 11 27 c27 68
221 614 221 623 0 11 -1227 13 -1233 2z"/>
<path d="M11654 3606 c-10 -64 -72 -234 -112 -311 -21 -38 -63 -105 -95 -149
-32 -43 -55 -81 -50 -85 4 -4 35 -27 67 -52 33 -24 81 -70 108 -102 l48 -58
64 98 c35 54 70 110 77 126 9 21 19 27 42 27 l30 0 -7 -61 c-3 -34 -6 -93 -6
-132 l0 -69 -195 3 -195 4 0 -146 0 -146 175 5 c200 5 187 14 154 -94 -55
-179 -156 -311 -322 -423 l-49 -33 75 -77 c41 -42 89 -100 107 -129 l32 -52
58 50 c112 97 214 214 260 298 25 46 50 89 55 98 9 12 21 0 67 -68 31 -46 97
-123 147 -172 77 -77 91 -87 97 -70 17 49 106 223 121 236 15 12 16 -1 9 -164
l-7 -178 150 0 151 0 0 65 0 65 110 0 110 0 0 -65 0 -65 153 0 152 0 0 852 0
853 -410 0 -410 0 3 -647 c2 -357 0 -648 -4 -648 -4 0 -30 18 -59 40 -119 92
-290 299 -267 322 7 7 62 9 151 6 l141 -4 0 146 0 146 -130 -4 -130 -4 0 108
c0 165 -9 154 126 154 l114 0 0 145 0 145 -229 0 -229 0 29 92 c16 51 26 95
21 99 -4 4 -71 20 -149 36 l-142 30 -7 -41z m1276 -911 l0 -505 -105 0 -105 0
0 505 0 505 105 0 105 0 0 -505z"/>
<path d="M13696 3628 c-28 -96 -55 -169 -92 -247 l-44 -94 -71 7 -72 8 6 -69
c4 -37 10 -107 13 -155 l7 -88 36 5 c20 3 137 14 261 26 124 11 270 26 325 34
54 7 102 12 106 9 4 -2 14 -24 22 -49 l16 -45 -350 0 -349 0 0 -587 c0 -324
-3 -605 -6 -625 l-7 -38 159 0 159 0 -3 205 -4 206 119 -3 118 -3 3 -43 c5
-65 -9 -76 -90 -68 -38 3 -68 3 -68 -1 0 -5 9 -41 20 -80 10 -40 22 -100 26
-134 l7 -62 116 6 c125 5 168 16 218 54 60 44 62 66 65 650 l3 522 -55 3 -55
3 90 53 90 52 6 -112 c3 -66 12 -126 20 -143 35 -73 174 -102 444 -91 300 11
354 35 390 172 8 33 18 96 21 140 l7 81 -68 12 c-37 7 -100 22 -140 35 l-72
23 -6 -81 c-4 -59 -10 -83 -22 -92 -23 -17 -159 -28 -214 -18 l-46 9 -3 56 -3
57 73 21 c150 45 474 174 500 199 4 4 -38 64 -93 134 l-101 126 -47 -33 c-51
-37 -260 -141 -303 -151 l-28 -6 0 101 0 101 -155 0 -155 0 0 -202 -1 -203
-47 90 c-26 50 -69 125 -96 168 -57 91 -45 90 -188 22 l-96 -45 34 -64 34 -63
-62 -7 c-33 -3 -75 -6 -93 -6 l-32 0 73 138 c41 75 74 140 74 144 0 10 -21 14
-163 33 -144 18 -157 18 -161 3z m352 -945 l-3 -38 -117 -3 -118 -3 0 41 0 40
121 0 120 0 -3 -37z m-3 -298 l0 -40 -117 -3 -118 -3 0 46 0 46 118 -3 117 -3
0 -40z"/>
<path d="M16305 3593 c-77 -14 -142 -27 -144 -29 -2 -2 12 -36 32 -76 20 -40
43 -92 51 -115 l15 -43 -67 0 -67 0 -44 83 c-80 149 -109 188 -134 182 -12 -3
-76 -16 -141 -30 -66 -14 -122 -27 -124 -29 -2 -2 22 -46 52 -97 31 -50 56
-96 56 -102 0 -5 -56 -8 -145 -5 l-144 3 -3 -277 -3 -278 153 0 152 0 0 140 0
140 605 0 605 0 0 -140 0 -140 148 0 147 0 0 278 0 277 -142 -4 -142 -3 55
107 c31 58 54 107 53 109 -2 2 -62 15 -134 30 -71 15 -139 30 -151 32 -17 4
-23 -2 -32 -33 -6 -22 -34 -85 -62 -141 l-50 -103 -62 3 -61 3 -22 65 c-29 86
-92 220 -102 219 -4 -1 -71 -13 -148 -26z"/>
<path d="M18190 3539 c-131 -170 -412 -361 -656 -448 l-92 -33 40 -64 c21 -36
54 -100 73 -142 18 -42 40 -78 47 -80 7 -1 70 26 141 60 l127 63 0 -50 0 -50
540 0 540 0 0 53 c0 28 2 52 4 52 3 0 32 -16 65 -35 56 -33 214 -105 230 -105
4 0 15 26 25 58 10 31 41 101 68 156 27 54 48 99 46 100 -2 2 -46 17 -98 35
-224 77 -452 220 -617 387 l-112 114 -158 0 -158 0 -55 -71z m277 -265 c26
-31 88 -89 136 -130 l88 -74 -278 0 -278 1 40 31 c22 18 83 75 135 128 52 53
98 98 102 98 4 1 28 -23 55 -54z"/>
<path d="M8117 3358 c-5 -251 -22 -379 -72 -553 -31 -106 -105 -267 -165 -356
-92 -136 -265 -284 -462 -393 -38 -20 -68 -39 -68 -42 0 -3 25 -34 55 -67 30
-34 75 -99 101 -144 l46 -82 66 41 c111 68 212 147 316 247 167 162 256 298
343 524 19 51 36 93 37 95 2 1 15 -31 31 -70 122 -314 319 -559 610 -757 55
-37 105 -71 112 -75 8 -4 24 16 47 61 29 57 68 117 154 234 12 16 8 21 -45 48
-191 96 -397 279 -516 457 -167 251 -231 493 -232 876 l0 188 -176 0 -177 0
-5 -232z"/>
<path d="M9490 3330 l0 -156 330 4 330 4 0 -507 0 -508 -357 6 c-197 3 -367 7
-378 9 -19 3 -20 -3 -23 -157 l-2 -160 837 3 c461 2 884 -1 941 -5 l102 -9 0
168 0 168 -32 -7 c-18 -4 -195 -7 -393 -7 l-360 -1 -3 504 -2 503 345 -3 345
-4 0 155 0 155 -840 0 -840 0 0 -155z"/>
<path d="M15870 2853 l0 -133 316 0 316 0 -43 -36 c-61 -51 -91 -64 -149 -64
l-50 0 0 -46 0 -45 -385 3 -385 3 0 -147 0 -146 385 6 385 5 0 -116 0 -115
-31 -7 c-33 -7 -249 2 -283 12 -22 6 -23 13 22 -117 17 -47 33 -106 37 -132
l7 -46 96 -4 c152 -6 313 7 363 30 95 42 108 83 109 326 l0 169 370 -6 370 -5
0 146 0 147 -282 -3 c-156 -2 -303 -2 -327 0 l-44 3 84 66 c46 37 121 102 166
145 l83 79 -69 78 -69 78 -496 2 -496 2 0 -132z"/>
<path d="M17540 2538 l0 -146 240 5 c221 6 240 5 240 -11 0 -21 -35 -91 -107
-217 l-55 -96 -77 -7 c-42 -3 -105 -3 -139 0 -34 4 -62 3 -62 -2 0 -13 30
-265 35 -300 l5 -31 58 8 c31 4 125 13 207 19 210 15 801 69 888 80 134 17
130 19 178 -60 24 -38 47 -70 50 -70 13 0 269 162 269 170 0 22 -201 277 -332
421 -43 48 -78 90 -78 94 0 5 99 5 220 2 l220 -6 0 147 0 147 -880 0 -880 0 0
-147z m1215 -147 c-6 -5 -53 -26 -105 -47 -52 -20 -97 -39 -99 -40 -2 -2 33
-45 78 -96 67 -77 78 -94 64 -99 -18 -6 -360 -29 -440 -29 l-42 0 38 63 c21
35 60 103 86 152 26 50 49 93 52 98 2 4 88 7 191 7 113 0 182 -4 177 -9z"/>
<path d="M14420 2305 c0 -415 5 -460 51 -500 53 -44 95 -50 359 -50 206 0 254
3 302 18 124 38 160 105 183 338 l6 65 -66 13 c-37 6 -102 25 -144 40 l-78 29
-5 -96 c-5 -82 -8 -98 -27 -113 -39 -32 -222 -36 -258 -7 -9 7 -13 38 -13 90
0 54 4 80 13 82 6 2 68 21 137 41 110 32 366 127 427 159 21 11 18 15 -68 116
-136 159 -116 148 -184 104 -67 -42 -148 -80 -252 -118 l-73 -26 0 95 0 95
-155 0 -155 0 0 -375z"/>
<path d="M10 1160 l0 -30 9995 0 9995 0 0 30 0 30 -9995 0 -9995 0 0 -30z"/>
<path d="M7005 917 c-62 -21 -92 -45 -115 -91 -24 -50 -25 -84 -6 -131 21 -50
77 -81 204 -113 62 -16 125 -38 140 -49 39 -29 49 -65 30 -106 -22 -46 -70
-67 -150 -67 -83 0 -135 28 -163 87 -18 39 -23 42 -59 43 -38 0 -38 0 -32 -32
13 -64 52 -115 113 -145 50 -24 70 -28 143 -28 98 1 146 20 197 79 57 64 52
170 -9 221 -39 33 -53 38 -193 76 -82 22 -116 36 -132 55 -71 79 38 163 175
133 55 -11 102 -53 102 -90 0 -16 7 -19 40 -19 33 0 40 3 40 19 0 55 -41 111
-104 143 -49 25 -166 33 -221 15z"/>
<path d="M10054 916 c-35 -16 -64 -74 -64 -131 0 -31 -3 -34 -32 -37 -29 -3
-33 -6 -33 -33 0 -27 4 -30 33 -33 l32 -3 0 -195 0 -194 40 0 40 0 0 195 0
195 45 0 c45 0 45 0 45 35 0 35 0 35 -45 35 -44 0 -45 1 -45 33 0 51 24 77 71
77 38 0 39 1 39 35 l0 35 -47 0 c-27 -1 -62 -7 -79 -14z"/>
<path d="M12634 920 c-36 -14 -62 -58 -69 -116 -7 -51 -9 -54 -36 -54 -26 0
-29 -3 -29 -35 0 -32 2 -35 30 -35 l30 0 2 -192 3 -193 38 -3 37 -3 0 195 0
196 45 0 c45 0 45 0 45 35 0 35 0 35 -46 35 l-47 0 6 42 c7 49 27 68 74 68 31
0 33 2 33 35 l0 35 -47 -1 c-27 0 -58 -4 -69 -9z"/>
<path d="M1060 880 l0 -40 105 0 105 0 0 -275 0 -275 40 0 40 0 0 275 0 274
103 3 102 3 3 38 3 37 -250 0 -251 0 0 -40z"/>
<path d="M1632 608 l3 -313 40 0 40 0 3 168 2 167 42 30 c52 38 105 40 136 7
20 -21 22 -34 24 -197 l3 -175 38 -3 37 -3 0 181 c0 204 -8 238 -64 267 -50
27 -126 22 -175 -10 l-41 -27 0 110 0 110 -45 0 -45 0 2 -312z"/>
<path d="M3068 666 c-3 -253 -3 -255 -27 -280 -35 -37 -101 -37 -130 0 -12 15
-21 40 -21 55 0 27 -3 29 -41 29 l-42 0 5 -48 c9 -89 66 -137 163 -137 75 0
122 25 150 80 18 36 20 64 23 298 l3 257 -40 0 -39 0 -4 -254z"/>
<path d="M8380 875 l0 -45 40 0 40 0 0 45 0 45 -40 0 -40 0 0 -45z"/>
<path d="M11297 618 c-65 -167 -117 -309 -117 -316 0 -7 14 -12 39 -12 l39 0
33 95 34 96 135 -3 135 -3 34 -92 34 -93 43 0 c24 0 44 4 44 9 0 4 -56 145
-124 312 l-124 304 -44 3 -45 3 -116 -303z m215 75 c26 -69 48 -130 48 -134 0
-5 -47 -9 -105 -9 l-104 0 44 123 c56 157 56 159 63 152 3 -3 27 -62 54 -132z"/>
<path d="M12350 875 l0 -45 40 0 40 0 0 45 0 45 -40 0 -40 0 0 -45z"/>
<path d="M12790 875 l0 -45 40 0 40 0 0 45 0 45 -40 0 -40 0 0 -45z"/>
<path d="M13430 875 l0 -45 40 0 40 0 0 45 0 45 -40 0 -40 0 0 -45z"/>
<path d="M14120 604 l0 -315 38 3 37 3 3 313 2 312 -40 0 -40 0 0 -316z"/>
<path d="M14570 605 l0 -315 40 0 40 0 0 315 0 315 -40 0 -40 0 0 -315z"/>
<path d="M16010 605 l0 -315 40 0 40 0 0 315 0 315 -40 0 -40 0 0 -315z"/>
<path d="M16210 605 l0 -315 40 0 40 0 0 315 0 315 -40 0 -40 0 0 -315z"/>
<path d="M16410 875 l0 -45 40 0 40 0 0 45 0 45 -40 0 -40 0 0 -45z"/>
<path d="M9080 805 c0 -54 0 -55 -30 -55 -28 0 -30 -3 -30 -35 0 -32 2 -35 30
-35 l30 0 0 -170 c0 -168 0 -171 25 -195 20 -21 34 -25 80 -25 54 0 55 0 55
30 0 26 -4 30 -28 30 -49 0 -52 12 -52 177 l0 153 35 0 c33 0 35 2 35 35 0 33
-2 35 -35 35 l-35 0 0 55 0 55 -40 0 -40 0 0 -55z"/>
<path d="M12120 805 c0 -54 0 -55 -30 -55 -28 0 -30 -3 -30 -35 0 -32 2 -35
29 -35 l30 0 3 -176 c3 -171 4 -176 27 -195 16 -13 39 -19 77 -19 53 0 54 0
54 30 0 26 -4 30 -28 30 -49 0 -52 12 -52 177 l0 153 35 0 c33 0 35 2 35 35 0
33 -2 35 -35 35 l-35 0 0 55 0 55 -40 0 -40 0 0 -55z"/>
<path d="M15290 806 c0 -52 -1 -55 -27 -58 -24 -3 -28 -8 -28 -33 0 -25 4 -31
27 -33 l27 -3 3 -176 c3 -170 4 -175 27 -194 16 -13 39 -19 77 -19 53 0 54 0
54 30 0 26 -4 30 -28 30 -49 0 -52 12 -52 177 l0 153 35 0 c33 0 35 2 35 35 0
33 -2 35 -35 35 l-35 0 0 55 0 55 -40 0 -40 0 0 -54z"/>
<path d="M2252 750 c-100 -24 -156 -107 -156 -230 0 -98 28 -160 91 -200 90
-57 220 -45 282 25 17 20 31 40 31 45 0 4 3 15 6 24 5 13 -2 16 -34 16 -32 0
-42 -4 -47 -20 -19 -59 -134 -83 -190 -38 -29 23 -55 74 -55 108 0 19 6 20
170 20 l170 0 0 28 c0 16 -7 53 -16 83 -22 73 -74 123 -144 138 -57 12 -61 12
-108 1z m119 -77 c29 -17 59 -67 59 -97 0 -14 -17 -16 -125 -16 -137 0 -140 2
-110 60 34 66 113 90 176 53z"/>
<path d="M3393 750 c-58 -12 -81 -26 -103 -63 -31 -51 -27 -67 19 -67 32 0 40
4 45 23 7 31 45 47 110 47 66 0 92 -19 101 -76 l6 -41 -88 -5 c-101 -6 -163
-28 -198 -69 -82 -98 5 -229 143 -215 29 2 71 14 93 25 49 26 49 26 49 0 0
-17 5 -20 38 -17 l37 3 0 170 c0 201 -8 236 -63 264 -45 23 -132 33 -189 21z
m177 -288 c0 -38 -5 -53 -22 -69 -37 -33 -64 -43 -115 -43 -66 0 -93 20 -93
69 0 64 44 89 158 90 l72 1 0 -48z"/>
<path d="M3927 746 c-21 -8 -47 -22 -57 -31 -17 -16 -19 -15 -22 7 -2 19 -10
24 -40 26 l-38 3 0 -315 0 -316 40 0 40 0 0 100 0 101 33 -18 c19 -10 55 -17
88 -17 111 -1 180 80 187 221 7 127 -43 218 -133 242 -49 13 -51 13 -98 -3z
m108 -80 c65 -65 56 -249 -14 -303 -25 -19 -102 -16 -138 7 l-33 20 0 119 0
120 37 30 c49 40 112 43 148 7z"/>
<path d="M4367 750 c-61 -16 -93 -37 -111 -74 -23 -50 -21 -56 24 -56 22 0 40
5 40 10 0 6 11 22 25 35 20 21 34 25 85 25 51 0 65 -4 85 -25 17 -16 25 -35
25 -58 l0 -34 -88 -5 c-146 -9 -211 -49 -220 -136 -13 -142 130 -192 301 -104
4 2 7 -6 7 -17 0 -18 6 -21 41 -21 l41 0 -4 188 c-3 210 -9 231 -73 258 -45
18 -131 25 -178 14z m173 -287 c0 -57 -4 -64 -50 -92 -47 -28 -132 -29 -160
-1 -20 20 -26 54 -13 85 11 30 82 55 156 55 l67 0 0 -47z"/>
<path d="M4907 746 c-22 -8 -50 -24 -63 -37 l-24 -22 0 31 c0 31 -2 32 -40 32
l-40 0 0 -230 0 -230 40 0 40 0 0 163 0 163 28 26 c56 52 112 63 153 29 23
-19 24 -24 27 -200 l3 -181 40 0 41 0 -4 183 c-3 162 -5 186 -24 217 -33 57
-109 81 -177 56z"/>
<path d="M5339 744 c-56 -17 -113 -75 -128 -131 -6 -21 -11 -63 -11 -93 0 -78
16 -125 57 -171 84 -93 273 -85 333 14 31 51 27 67 -19 67 -33 0 -40 -4 -45
-25 -13 -50 -114 -72 -177 -39 -18 9 -38 32 -50 57 -36 80 -41 77 151 77 l170
0 0 38 c0 100 -56 181 -143 207 -61 18 -78 18 -138 -1z m140 -70 c24 -17 63
-92 55 -106 -7 -10 -241 -10 -248 0 -8 14 31 89 55 106 13 9 43 16 69 16 26 0
56 -7 69 -16z"/>
<path d="M5785 742 c-66 -23 -99 -69 -92 -130 3 -24 12 -51 22 -62 16 -18 88
-46 183 -70 46 -12 82 -40 82 -65 0 -9 -11 -27 -25 -40 -20 -21 -34 -25 -85
-25 -51 0 -65 4 -85 25 -14 13 -25 31 -25 40 0 11 -11 15 -40 15 -45 0 -46 -4
-25 -58 24 -59 80 -87 175 -86 82 0 124 16 158 59 47 59 32 149 -30 181 -18 9
-71 28 -117 40 -91 25 -111 37 -111 65 0 37 36 59 95 59 42 0 60 -5 75 -20 11
-11 20 -24 20 -30 0 -5 18 -10 40 -10 45 0 50 12 25 59 -29 58 -151 85 -240
53z"/>
<path d="M6285 751 c-87 -22 -137 -77 -157 -174 -23 -109 22 -226 102 -267 91
-47 211 -31 269 35 17 20 31 40 31 45 0 4 3 15 6 24 5 13 -2 16 -40 16 -39 0
-46 -3 -46 -19 0 -56 -128 -84 -184 -40 -32 25 -56 69 -56 104 l0 25 170 0
c137 0 170 3 170 14 0 42 -24 126 -45 158 -41 62 -143 99 -220 79z m119 -82
c28 -22 56 -68 56 -94 0 -13 -19 -15 -125 -15 -108 0 -125 2 -125 16 0 30 33
85 59 99 39 21 104 19 135 -6z"/>
<path d="M7585 751 c-108 -27 -159 -106 -158 -243 2 -159 113 -251 260 -218
112 25 171 119 161 255 -9 111 -66 184 -158 204 -56 12 -62 12 -105 2z m110
-73 c46 -21 69 -72 69 -157 0 -118 -39 -171 -127 -171 -82 0 -127 60 -127 170
0 72 17 119 55 148 31 25 89 29 130 10z"/>
<path d="M8062 749 c-97 -23 -161 -136 -148 -261 11 -105 59 -169 144 -194
112 -33 215 14 243 108 8 28 7 28 -37 28 -37 0 -44 -3 -44 -19 0 -52 -118 -83
-166 -43 -43 35 -57 70 -58 145 0 120 42 177 132 177 45 0 92 -31 92 -61 0
-16 7 -19 44 -19 l45 0 -9 32 c-25 85 -129 132 -238 107z"/>
<path d="M8695 746 c-90 -25 -145 -111 -145 -226 0 -122 61 -208 164 -231 96
-21 196 14 231 81 25 48 20 60 -24 60 -33 0 -40 -4 -45 -25 -12 -47 -109 -72
-171 -43 -30 13 -60 59 -70 106 l-7 32 171 0 171 0 0 49 c0 142 -132 236 -275
197z m140 -78 c25 -20 55 -73 55 -98 0 -6 -46 -10 -125 -10 -120 0 -125 1
-125 21 0 29 18 60 48 86 37 31 109 31 147 1z"/>
<path d="M10342 749 c-86 -20 -152 -120 -152 -229 0 -57 28 -137 61 -175 64
-73 204 -82 286 -19 88 67 107 242 38 346 -44 66 -142 98 -233 77z m132 -80
c42 -33 56 -71 56 -149 0 -114 -43 -170 -130 -170 -82 0 -122 55 -123 170 0
77 20 127 61 152 38 24 103 23 136 -3z"/>
<path d="M10864 746 c-17 -8 -41 -24 -53 -37 l-21 -23 0 32 c0 31 -2 32 -40
32 l-40 0 0 -230 0 -230 40 0 40 0 0 165 c0 153 2 167 20 185 26 26 62 40 101
40 29 0 30 2 27 38 -3 43 -23 50 -74 28z"/>
<path d="M11985 753 c-11 -3 -34 -16 -52 -29 l-32 -24 -3 23 c-2 18 -10 23
-40 25 l-38 3 0 -231 0 -231 38 3 37 3 5 170 5 169 35 24 c25 17 45 23 73 20
37 -3 37 -3 37 33 0 24 -5 39 -16 43 -17 6 -18 6 -49 -1z"/>
<path d="M13125 751 c-88 -22 -138 -78 -155 -174 -12 -63 -2 -145 25 -196 36
-71 139 -113 226 -93 79 19 111 47 133 120 7 20 4 22 -34 22 -30 0 -42 -5 -47
-17 -15 -43 -45 -63 -93 -63 -87 0 -130 56 -130 170 0 78 14 116 56 149 52 41
143 21 164 -35 8 -20 16 -24 50 -24 22 0 40 3 40 7 0 4 -9 25 -20 48 -32 67
-133 107 -215 86z"/>
<path d="M13743 750 c-53 -11 -90 -35 -109 -71 -24 -47 -19 -59 26 -59 28 0
40 4 40 14 0 31 50 56 110 56 71 0 97 -19 106 -76 l6 -41 -88 -5 c-102 -6
-164 -28 -199 -69 -82 -98 5 -229 143 -215 29 2 71 14 93 25 49 26 49 26 49 0
0 -17 5 -20 38 -17 l37 3 0 180 c0 202 -7 230 -67 258 -43 20 -132 28 -185 17z
m177 -288 c0 -38 -5 -53 -22 -69 -37 -33 -64 -43 -115 -43 -66 0 -93 20 -93
69 0 64 44 89 158 90 l72 1 0 -48z"/>
<path d="M14957 746 c-22 -8 -50 -24 -63 -37 l-24 -22 0 31 c0 31 -2 32 -40
32 l-40 0 0 -230 0 -230 40 0 40 0 0 163 0 163 28 26 c59 55 117 64 157 23 25
-24 25 -27 25 -200 l0 -175 40 0 40 0 0 178 c0 193 -8 227 -60 263 -35 25 -98
31 -143 15z"/>
<path d="M15655 751 c-85 -21 -136 -76 -156 -169 -22 -107 14 -215 89 -263
109 -69 266 -34 308 68 19 44 19 43 -26 43 -34 0 -42 -4 -50 -24 -14 -38 -49
-56 -106 -56 -37 0 -59 6 -78 21 -32 25 -56 69 -56 104 l0 25 171 0 172 0 -7
53 c-15 110 -67 176 -156 196 -51 12 -63 12 -105 2z m119 -82 c28 -22 56 -68
56 -94 0 -13 -19 -15 -125 -15 -137 0 -140 2 -110 60 23 45 62 70 110 70 28 0
51 -7 69 -21z"/>
<path d="M16717 747 c-84 -27 -137 -116 -137 -233 0 -77 21 -139 63 -182 57
-59 157 -66 217 -15 l30 25 0 -46 c0 -25 -5 -56 -11 -70 -16 -35 -72 -60 -121
-53 -44 6 -66 21 -79 54 -7 18 -16 23 -43 23 -45 0 -51 -12 -29 -57 28 -57 73
-78 168 -78 98 0 142 23 174 89 20 39 21 60 21 294 l0 252 -35 0 c-22 0 -38
-6 -41 -15 -5 -12 -10 -13 -32 -1 -41 21 -103 26 -145 13z m139 -78 l34 -21 0
-118 0 -118 -35 -31 c-47 -41 -113 -44 -150 -7 -61 61 -61 223 2 288 34 36 98
39 149 7z"/>
<path d="M17211 745 c-92 -29 -140 -106 -141 -223 0 -124 49 -200 149 -229 98
-28 211 9 245 81 23 49 21 56 -23 56 -31 0 -41 -4 -46 -20 -18 -58 -127 -81
-185 -40 -30 21 -60 76 -60 109 0 21 4 21 170 21 l170 0 0 31 c0 108 -66 198
-158 218 -64 13 -66 13 -121 -4z m135 -71 c28 -19 54 -63 54 -94 0 -19 -6 -20
-125 -20 -79 0 -125 4 -125 10 0 25 30 78 55 98 34 27 104 29 141 6z"/>
<path d="M17747 746 c-21 -8 -46 -21 -56 -30 -24 -22 -31 -20 -31 9 0 23 -4
25 -40 25 l-40 0 0 -230 0 -230 40 0 40 0 0 163 0 163 28 26 c56 52 112 63
153 29 23 -19 24 -24 27 -200 l3 -181 40 0 41 0 -4 189 c-3 174 -5 192 -24
218 -38 51 -114 72 -177 49z"/>
<path d="M18181 746 c-116 -38 -173 -187 -125 -329 50 -149 266 -184 351 -57
36 52 31 70 -17 70 -29 0 -40 -4 -40 -15 0 -9 -11 -27 -25 -40 -19 -20 -34
-25 -75 -25 -43 0 -56 5 -80 28 -67 67 -66 220 2 284 41 38 117 40 153 3 14
-13 25 -31 25 -40 0 -11 11 -15 40 -15 48 0 52 18 17 71 -41 63 -142 92 -226
65z"/>
<path d="M18619 744 c-56 -17 -113 -75 -128 -131 -16 -56 -13 -158 5 -201 48
-117 193 -164 314 -102 43 22 65 49 75 93 7 26 6 27 -34 27 -29 0 -41 -4 -41
-14 0 -8 -14 -26 -31 -40 -62 -52 -166 -28 -200 47 -36 80 -41 77 151 77 l170
0 0 38 c0 104 -66 191 -159 211 -63 13 -64 13 -122 -5z m140 -70 c24 -17 63
-92 55 -106 -3 -4 -61 -8 -130 -8 -121 0 -125 1 -120 20 3 11 8 29 12 40 3 10
19 31 35 45 37 30 111 35 148 9z"/>
<path d="M8380 520 l0 -230 40 0 40 0 0 230 0 230 -40 0 -40 0 0 -230z"/>
<path d="M9260 748 c0 -2 38 -104 85 -227 60 -157 83 -230 79 -248 -4 -13 -22
-40 -40 -60 -29 -30 -38 -35 -64 -29 -31 6 -31 5 -28 -32 3 -36 5 -37 43 -40
57 -4 97 25 128 90 25 52 207 530 207 543 0 3 -19 5 -42 3 l-41 -3 -56 -167
c-31 -92 -59 -169 -62 -173 -4 -3 -33 72 -65 167 l-59 173 -42 3 c-24 2 -43 2
-43 0z"/>
<path d="M12350 520 l0 -230 40 0 40 0 0 230 0 230 -40 0 -40 0 0 -230z"/>
<path d="M12790 520 l0 -230 40 0 40 0 0 230 0 230 -40 0 -40 0 0 -230z"/>
<path d="M13430 520 l0 -230 40 0 40 0 0 230 0 230 -40 0 -40 0 0 -230z"/>
<path d="M16410 520 l0 -230 40 0 40 0 0 230 0 230 -40 0 -40 0 0 -230z"/>
</g>
</svg>
