<?xml version="1.0" encoding="utf-8"?>
<!-- Generator: Adobe Illustrator 19.2.1, SVG Export Plug-In . SVG Version: 6.00 Build 0)  -->
<svg version="1.1" id="layer" xmlns="http://www.w3.org/2000/svg" xmlns:xlink="http://www.w3.org/1999/xlink" x="0px" y="0px"
	 viewBox="0 0 652 652" style="enable-background:new 0 0 652 652;" xml:space="preserve">
<style type="text/css">
	.st0{fill:#0B4874;}
</style>
<path class="st0" d="M328.7,315c1.4,0,2.5,1.1,2.5,2.5v16.4c0,0.8,0.5,1.6,1.6,1.6c0.8,0,1.6-0.8,1.6-1.6v-16.4
	c0-1.4,1.1-2.5,2.5-2.5c1.4,0,2.5,1.1,2.5,2.5l0,0V347c0.3,3.6-2.5,6.8-6,7.1s-6.8-2.5-7.1-6c0-0.3,0-0.5,0-0.8v-29.5
	C326.2,316.1,327.3,315,328.7,315z M305.4,315c1.4,0,2.5,1.1,2.5,2.5v16.4c0,0.8,0.5,1.6,1.6,1.6c0.8,0,1.6-0.5,1.6-1.6l0,0v-16.4
	c-0.3-1.4,0.8-2.7,2.2-2.7c1.4-0.3,2.7,0.8,2.7,2.2c0,0.3,0,0.3,0,0.5V347c0,3.6-3,6.6-6.6,6.6s-6.6-3-6.6-6.6v-29.5
	C302.9,316.1,304,315,305.4,315L305.4,315z M351.1,308.1c1.4,0,2.5,1.1,2.5,2.5l0,0V327c0,0.8,0.5,1.6,1.6,1.6
	c0.8,0,1.6-0.8,1.6-1.6v-16.4c-0.3-1.4,0.8-2.7,2.2-2.7c1.4-0.3,2.7,0.8,2.7,2.2c0,0.3,0,0.3,0,0.5v29.5c0,3.6-3,6.6-6.6,6.6
	s-6.6-3-6.6-6.6l0,0v-29.3C348.4,309.5,349.4,308.1,351.1,308.1L351.1,308.1z M283,308.1c1.4,0,2.5,1.1,2.5,2.5V327
	c0,0.8,0.5,1.6,1.6,1.6c0.8,0,1.6-0.5,1.6-1.6l0,0v-16.4c-0.3-1.4,0.8-2.7,2.2-2.7c1.4-0.3,2.7,0.8,2.7,2.2c0,0.3,0,0.3,0,0.5v29.5
	c0.3,3.6-2.5,6.8-6,7.1c-3.6,0.3-6.8-2.5-7.1-6c0-0.3,0-0.5,0-0.8v-29.3C280.5,309.5,281.6,308.1,283,308.1L283,308.1L283,308.1z
	 M328.7,268.2c1.4,0,2.5,1.1,2.5,2.5l0,0v16.4c0,0.8,0.5,1.6,1.6,1.6c0.8,0,1.6-0.8,1.6-1.6v-16.4c0-1.4,1.1-2.5,2.5-2.5
	c1.4,0,2.5,1.1,2.5,2.5v29.5c0.3,3.6-2.5,6.8-6,7.1s-6.8-2.5-7.1-6c0-0.3,0-0.5,0-0.8v-29.5C326.2,269.3,327.3,268.2,328.7,268.2
	L328.7,268.2z M305.4,268.2c1.4,0,2.5,1.1,2.5,2.5l0,0v16.4c-0.3,0.8,0.3,1.6,1.4,1.9c0.8,0.3,1.6-0.3,1.9-1.4c0-0.3,0-0.3,0-0.5
	v-16.4c0.3-1.4,1.4-2.5,2.7-2.2c1.1,0,2.2,1.1,2.2,2.2v29.5c0,3.6-3,6.6-6.6,6.6s-6.6-3-6.6-6.6v-29.5
	C302.7,269.3,304,268.2,305.4,268.2L305.4,268.2L305.4,268.2z M351.1,261.3c1.4,0,2.5,1.1,2.5,2.5l0,0v16.4c0,0.8,0.5,1.6,1.6,1.6
	c0.8,0,1.6-0.8,1.6-1.6v-16.4c-0.3-1.4,0.8-2.7,2.2-2.7c1.4-0.3,2.7,0.8,2.7,2.2c0,0.3,0,0.3,0,0.5v29.8c0,3.6-3,6.6-6.6,6.6
	s-6.6-3-6.6-6.6l0,0v-29.5C348.4,262.7,349.4,261.6,351.1,261.3L351.1,261.3z M283,261.3c1.4,0,2.5,1.1,2.5,2.5v16.4
	c0,0.8,0.5,1.6,1.6,1.6c0.8,0,1.6-0.5,1.6-1.6l0,0v-16.4c-0.3-1.4,0.8-2.7,2.2-2.7c1.4-0.3,2.7,0.8,2.7,2.2c0,0.3,0,0.3,0,0.5v29.8
	c0.3,3.6-2.5,6.8-6,7.1s-6.8-2.5-7.1-6c0-0.3,0-0.5,0-0.8v-29.5C280.5,262.7,281.6,261.6,283,261.3C283,261.6,283,261.6,283,261.3
	L283,261.3z M257.2,237.3c1.4,0,2.5,1.1,2.5,2.5v80.2c0,0.8,0.5,1.6,1.6,1.6c0.8,0,1.6-0.8,1.6-1.6v-69.2c0-1.4,1.1-2.5,2.5-2.5
	c1.4,0,2.5,1.1,2.5,2.5v82.6c0,3.6-3,6.6-6.6,6.6s-6.6-3-6.6-6.6v-93.6C254.5,238.4,255.9,237.3,257.2,237.3L257.2,237.3
	L257.2,237.3z M386.1,237.3c1.4,0,2.5,1.1,2.5,2.5v93.6c0.3,3.6-2.5,6.8-6,7.1c-3.6,0.3-6.8-2.5-7.1-6c0-0.3,0-0.5,0-0.8v-82.6
	c0-1.4,1.1-2.5,2.5-2.5s2.5,1.1,2.5,2.5v69.2c0,0.8,0.5,1.6,1.4,1.6s1.6-0.5,1.6-1.4c0,0,0-0.3,0-0.5v-80.2
	C383.6,238.4,384.7,237.3,386.1,237.3L386.1,237.3z M321.3,231.8l6.6,4.9l-6.6,14.5l-6.6-14.5L321.3,231.8z M243,226.3
	c1.4,0,2.5,1.1,2.5,2.5v114.4c0.3,3.6-2.5,6.8-6,7.1c-3.6,0.3-6.8-2.5-7.1-6c0-0.3,0-0.5,0-0.8V230.7c0-1.4,1.1-2.5,2.5-2.5
	c1.4,0,2.5,1.1,2.5,2.5v87.6c0,0.8,0.5,1.6,1.6,1.6c0.8,0,1.6-0.8,1.6-1.6l0,0v-89.5C240.6,227.4,241.6,226.3,243,226.3L243,226.3z
	 M400.1,226.3c1.4,0,2.5,1.1,2.5,2.5v89.5c0,0.8,0.5,1.6,1.4,1.6c0.8,0,1.6-0.5,1.6-1.4c0,0,0-0.3,0-0.5v-87.8
	c0-1.4,1.1-2.5,2.5-2.5c1.4,0,2.5,1.1,2.5,2.5v112.4c0.3,3.6-2.5,6.8-6,7.1c-3.6,0.3-6.8-2.5-7.1-6c0-0.3,0-0.5,0-0.8V228.5
	C397.6,227.4,398.7,226.3,400.1,226.3L400.1,226.3z M342.6,206.9c4.7,0,8.5,3.8,8.5,8.5c0,4.7-3.8,8.5-8.5,8.5
	c-4.7,0-8.5-3.8-8.5-8.5l0,0C334.1,210.7,337.7,206.9,342.6,206.9C342.6,206.6,342.6,206.6,342.6,206.9L342.6,206.9z M299.9,206.9
	c4.7,0,8.5,3.8,8.5,8.5c0,4.7-3.8,8.5-8.5,8.5c-4.7,0-8.5-3.8-8.5-8.5l0,0C291.2,210.7,295,206.9,299.9,206.9
	C299.7,206.6,299.7,206.6,299.9,206.9L299.9,206.9z M342.6,200.6c-7.9,0-14.5,6.6-14.8,14.5c0,7.9,6.6,14.5,14.5,14.8
	c7.9,0,14.5-6.6,14.8-14.5l0,0C357.4,207.2,350.8,200.6,342.6,200.6C342.9,200.6,342.9,200.6,342.6,200.6z M299.9,200.6
	c-7.9,0-14.5,6.6-14.8,14.5c0,7.9,6.6,14.5,14.5,14.8c7.9,0,14.5-6.6,14.8-14.5l0,0C314.4,207.2,307.9,200.6,299.9,200.6
	L299.9,200.6z M342.6,195.9c10.7,0,19.2,8.5,19.2,19.2s-8.5,19.2-19.2,19.2c-10.7,0-19.2-8.5-19.2-19.2
	C323.5,204.4,331.9,195.9,342.6,195.9L342.6,195.9L342.6,195.9z M299.9,195.9c10.7,0,19.2,8.5,19.2,19.2s-8.5,19.2-19.2,19.2
	c-10.7,0-19.2-8.5-19.2-19.2C280.8,204.4,289.3,195.9,299.9,195.9L299.9,195.9L299.9,195.9z M273.7,169.1l-5.2,61.3
	c-6.3-10.4-17-20.8-31.7-20.8c-11.8,0-21.3,6.6-21.3,18.6v142.3h9.6c15.9-0.3,31.2-6.3,43-16.7v24.6h-22.4l-9,17.5h4.1l9.6-6.6h12.3
	l-4.4,4.9l-1.4,13.7h3.8l17-18.6h27.1l5.7,6.6h3.8l-4.7-17.5h-22.2l12-12.9h44.3l12,12.9h-21.9l-4.7,17.5h3.8l5.7-6.6h27.1l17,18.6
	h3.8l-1.6-13.7l-4.4-4.9h12.3l9.6,6.6h4.1l-9-17.5h-21.9v-24.6c11.8,10.7,27.1,16.7,43,16.7h9.6V228.2c0-12-9.6-18.6-21.3-18.6
	c-14.8,0-25.7,10.7-32,21.1l-6.3-61.6h-23.8l-9.8,13.7h-27.4c-2.2-3.3-9.6-13.7-9.6-13.7L273.7,169.1L273.7,169.1z"/>
<path class="st0" d="M78,472.3l-3.8-10.7H59.7l-3.8,10.7h-6.6L63.5,434h6.8l14.2,38.3H78z M72.6,456.4L69,446
	c-0.3-0.8-0.5-1.9-1.1-3.3c-0.5-1.4-0.8-2.7-1.1-3.3c-0.5,2.5-1.1,4.7-2.2,7.1l-3.6,9.8H72.6z"/>
<path class="st0" d="M46.6,461.9c0.3,3-1.4,6-3.8,7.9c-3,2.2-6.6,3-10.1,3c-3.6,0.3-7.4-0.5-10.7-1.9v-6c1.6,0.8,3.6,1.4,5.5,1.9
	c1.9,0.5,3.6,0.8,5.5,0.8c1.9,0.3,3.8-0.3,5.5-1.4c1.1-0.8,1.9-2.2,1.6-3.8c0-1.4-0.5-2.7-1.6-3.6c-1.9-1.6-4.4-2.7-6.6-3.6
	c-2.7-0.8-5.5-2.7-7.4-4.9c-1.4-1.9-2.2-4.1-2.2-6.6c0-3,1.1-5.7,3.3-7.7c2.7-1.9,5.7-3,9-2.7c3.8,0,7.4,0.8,10.9,2.5l-1.9,5.2
	c-2.7-1.4-6-1.9-9-2.2c-1.6,0-3.3,0.3-4.7,1.4c-1.1,0.8-1.6,2.2-1.6,3.6c0,0.8,0.3,1.9,0.5,2.5c0.5,0.8,1.4,1.4,2.2,1.9
	c1.6,1.1,3.3,1.9,5.2,2.5c2.2,0.8,4.4,1.9,6.3,3.3c1.1,0.8,2.2,2.2,2.7,3.3C46.3,458.9,46.6,460.2,46.6,461.9z M113.6,472.3
	l-3.8-10.7H95l-3.8,10.7h-6.6L98.8,434h6.8l14.2,38.3H113.6z M108.1,456.4l-3.6-10.4c-0.3-0.8-0.5-1.9-1.1-3.3
	c-0.5-1.4-0.8-2.7-1.1-3.3c-0.5,2.5-1.4,4.7-2.2,7.1l-3.6,9.8H108.1z M131.9,457v15.3h-6.3V434h10.9c3.8-0.3,7.7,0.5,10.9,2.7
	c2.5,2.2,3.8,5.2,3.6,8.5c0,4.7-3,8.8-7.4,10.1l10.9,17h-7.1l-9.3-15.3L131.9,457z M131.9,451.8h4.4c2.2,0.3,4.4-0.3,6.3-1.6
	c1.4-1.1,2.2-3,1.9-4.9c0.3-1.9-0.5-3.6-2.2-4.7c-1.9-1.1-4.1-1.6-6.3-1.4h-4.1L131.9,451.8L131.9,451.8z M160.1,472.3V434h6.3v32.8
	h16.1v5.5H160.1z M213.2,472.3l-3.8-10.7h-14.5l-3.8,10.7h-6.6l14.2-38.3h6.8l14.2,38.3H213.2z M207.7,456.4l-3.6-10.4
	c-0.3-0.8-0.5-1.9-1.1-3.3c-0.5-1.4-0.8-2.7-1.1-3.3c-0.5,2.5-1.1,4.7-2.2,7.1l-3.6,9.8H207.7z M257,472.3h-7.7l-18.9-30.4h-0.3v1.6
	c0.3,3.3,0.3,6.3,0.3,8.8v20h-5.7V434h7.7l18.9,30.4h0.3c0-0.3,0-1.9-0.3-4.4s-0.3-4.4-0.3-5.7v-20h5.7L257,472.3z M298.6,452.9
	c0.3,5.5-1.6,10.7-5.2,14.5c-4.1,3.6-9.6,5.5-15,4.9h-10.9V434h11.8c5.2-0.3,10.4,1.4,14.2,4.9C296.9,442.7,298.8,447.7,298.6,452.9
	z M292,453.1c0-9-4.4-13.7-12.9-13.7h-5.5v27.6h4.4C287.3,467.1,292,462.4,292,453.1L292,453.1z M351.1,434v24.6
	c0,2.5-0.5,5.2-1.9,7.4c-1.1,2.2-3,3.8-5.2,4.9c-2.5,1.1-5.5,1.6-8.2,1.6c-4.1,0.3-7.9-1.1-10.9-3.8c-2.7-2.7-4.1-6.6-4.1-10.4
	v-24.6h6.3v24.1c-0.3,2.5,0.5,4.9,2.2,6.8c1.9,1.6,4.4,2.5,6.8,2.2c5.7,0,8.8-3,8.8-9.3v-24.1L351.1,434z M392.9,472.3h-7.7
	l-18.9-30.4h-0.3v1.6c0.3,3.3,0.3,6.3,0.3,8.8v20h-5.7V434h7.7l18.9,30.4h0.3c0-0.3,0-1.9-0.3-4.4s-0.3-4.4-0.3-5.7v-20h5.7
	L392.9,472.3z M403.3,472.3V434h6.3v38.3H403.3z M441.9,434h6.6l-13.4,38.3h-6.6L415.1,434h6.6l7.9,23.8c0.3,1.1,0.8,2.5,1.4,4.4
	c0.5,1.9,0.8,3,0.8,4.1c0.3-1.4,0.5-2.7,1.1-4.7s0.8-3,1.1-3.8L441.9,434z M475.3,472.3h-21.6V434h21.6v5.2H460v10.4h14.5v5.5H460
	v12h15.3V472.3z M490.1,457v15.3h-6.3V434h10.9c3.8-0.3,7.7,0.5,10.9,2.7c2.5,2.2,3.8,5.2,3.6,8.5c0,4.7-3,8.8-7.4,10.1l10.9,17
	h-7.4l-9.3-15.3L490.1,457z M490.1,451.8h4.4c2.2,0.3,4.4-0.3,6.3-1.6c1.4-1.1,2.2-3,1.9-4.9c0.3-1.9-0.5-3.6-2.2-4.7
	c-1.9-1.1-4.1-1.6-6.3-1.4h-4.1L490.1,451.8z M540.4,461.9c0.3,3-1.1,6-3.6,7.9c-3,2.2-6.6,3-10.1,3c-3.6,0.3-7.4-0.5-10.7-1.9v-6
	c1.6,0.8,3.6,1.4,5.5,1.9c1.9,0.5,3.6,0.8,5.5,0.8c1.9,0.3,3.8-0.3,5.5-1.4c1.1-0.8,1.9-2.2,1.6-3.8c0-1.4-0.5-2.7-1.6-3.6
	c-1.9-1.4-4.4-2.7-6.8-3.6c-2.7-0.8-5.5-2.7-7.4-4.9c-1.4-1.9-2.2-4.1-2.2-6.6c0-3,1.1-5.7,3.3-7.7c2.7-1.9,5.7-3,9-2.7
	c3.8,0,7.4,0.8,10.9,2.5l-1.9,5.2c-2.7-1.4-6-1.9-9-2.2c-1.6,0-3.3,0.3-4.7,1.4c-1.1,0.8-1.6,2.2-1.6,3.6c0,0.8,0.3,1.9,0.5,2.5
	c0.5,0.8,1.4,1.4,2.2,1.9c1.6,1.1,3.3,1.9,5.2,2.5c2.2,0.8,4.4,1.9,6.3,3.3c1.1,0.8,2.2,2.2,2.7,3.3
	C540.1,458.9,540.4,460.5,540.4,461.9z M548.1,472.3V434h6.3v38.3H548.1z M577.9,472.3h-6.3v-32.8h-11.2V434h28.7v5.5h-11.2V472.3z
	 M606.1,451.5l9-17.5h6.8l-12.6,23.3V472h-6.3v-14.2L590.5,434h6.8L606.1,451.5z"/>
</svg>
