<?xml version="1.0" standalone="no"?>
<!DOCTYPE svg PUBLIC "-//W3C//DTD SVG 20010904//EN"
 "http://www.w3.org/TR/2001/REC-SVG-20010904/DTD/svg10.dtd">
<svg version="1.0" xmlns="http://www.w3.org/2000/svg"
 width="68.000000pt" height="60.000000pt" viewBox="0 0 68.000000 60.000000"
 preserveAspectRatio="xMidYMid meet">

<g transform="translate(0.000000,60.000000) scale(0.100000,-0.100000)"
fill="#000000" stroke="none">
<path d="M290 549 c0 -5 -4 -7 -10 -4 -5 3 -10 0 -10 -8 0 -7 7 -14 15 -14 8
0 15 9 15 19 0 10 -2 18 -5 18 -3 0 -5 -5 -5 -11z"/>
<path d="M360 540 c0 -11 2 -20 4 -20 2 0 6 9 9 20 3 11 1 20 -4 20 -5 0 -9
-9 -9 -20z"/>
<path d="M224 536 c-3 -9 -10 -13 -15 -10 -5 3 -6 -3 -2 -12 4 -10 8 -13 10
-7 2 6 13 8 24 6 16 -5 20 -2 18 12 -5 24 -27 31 -35 11z m26 -6 c0 -5 -4 -10
-10 -10 -5 0 -10 5 -10 10 0 6 5 10 10 10 6 0 10 -4 10 -10z"/>
<path d="M320 540 c0 -5 5 -10 10 -10 6 0 10 5 10 10 0 6 -4 10 -10 10 -5 0
-10 -4 -10 -10z"/>
<path d="M387 543 c-11 -10 -8 -20 8 -27 10 -4 15 1 15 14 0 20 -11 26 -23 13z"/>
<path d="M427 539 c7 -7 15 -10 18 -7 3 3 -2 9 -12 12 -14 6 -15 5 -6 -5z"/>
<path d="M450 515 c-18 -21 -3 -32 16 -13 10 9 12 18 6 22 -5 3 -15 -1 -22 -9z"/>
<path d="M180 511 c0 -6 4 -13 10 -16 6 -3 7 1 4 9 -7 18 -14 21 -14 7z"/>
<path d="M155 481 c5 -16 2 -18 -15 -14 -19 5 -26 -9 -21 -39 0 -5 -6 -8 -15
-8 -8 0 -13 -4 -10 -9 4 -5 0 -12 -6 -14 -8 -3 -8 -6 -2 -6 6 -1 24 10 40 24
15 13 30 23 31 21 2 -2 -6 -20 -18 -41 -16 -27 -22 -53 -22 -95 0 -182 213
-277 350 -157 67 59 91 155 57 235 -16 39 -56 87 -87 104 -10 5 -1 -8 21 -30
65 -65 77 -172 28 -237 -14 -18 -15 -18 -16 -2 0 11 -8 17 -25 17 -30 0 -29
-2 -9 39 15 31 15 62 -1 104 -5 12 -2 17 9 17 10 0 16 9 16 25 0 23 -4 25 -45
25 -41 0 -48 4 -63 30 -9 16 -19 30 -22 30 -3 0 -14 -13 -23 -30 -16 -26 -24
-30 -63 -30 -40 0 -44 -2 -44 -25 0 -16 6 -25 16 -25 11 0 14 -5 9 -17 -16
-42 -16 -73 -1 -104 20 -41 21 -39 -13 -39 -16 0 -31 -6 -34 -12 -9 -25 -31
48 -31 103 0 66 33 126 87 159 18 11 27 20 21 20 -6 0 -30 -14 -52 -30 -44
-31 -49 -31 -32 0 7 13 6 19 -6 24 -11 4 -14 1 -9 -13z m-7 -33 c-2 -6 -10
-13 -16 -14 -7 -1 -8 0 -2 3 5 2 8 9 4 14 -3 5 0 9 6 9 7 0 10 -5 8 -12z m226
-79 c19 -15 26 -30 26 -54 0 -36 -36 -75 -70 -75 -34 0 -70 39 -70 75 0 36 36
75 70 75 10 0 29 -9 44 -21z m84 -191 c-8 -24 -82 -53 -134 -53 -49 1 -124 34
-124 56 0 5 58 9 131 9 96 0 130 -3 127 -12z"/>
<path d="M475 490 c-3 -5 -1 -10 4 -10 6 0 11 5 11 10 0 6 -2 10 -4 10 -3 0
-8 -4 -11 -10z"/>
<path d="M497 471 c-5 -22 18 -37 29 -19 5 7 2 8 -6 3 -10 -6 -12 -3 -8 13 4
12 3 22 -2 22 -4 0 -10 -9 -13 -19z"/>
<path d="M550 409 c0 -5 -4 -7 -10 -4 -5 3 -10 1 -10 -5 0 -15 32 -9 38 8 2 6
-1 12 -7 12 -6 0 -11 -5 -11 -11z"/>
<path d="M110 381 c0 -8 -6 -11 -16 -7 -8 3 -12 2 -9 -3 3 -5 1 -12 -5 -16
-15 -9 -12 -35 4 -35 19 0 33 23 17 28 -8 3 -6 8 6 17 10 7 15 17 10 21 -4 4
-7 2 -7 -5z m-15 -41 c3 -5 1 -10 -4 -10 -6 0 -11 5 -11 10 0 6 2 10 4 10 3 0
8 -4 11 -10z"/>
<path d="M565 330 c11 -5 14 -9 7 -9 -7 -1 -10 -6 -6 -12 4 -8 9 -7 15 2 10
17 2 29 -19 28 -14 0 -13 -2 3 -9z"/>
<path d="M75 300 c-3 -5 -1 -10 4 -10 6 0 11 5 11 10 0 6 -2 10 -4 10 -3 0 -8
-4 -11 -10z"/>
<path d="M563 284 c3 -4 2 -15 -3 -24 -7 -13 -6 -20 6 -24 8 -3 12 -2 9 4 -3
6 -2 10 2 10 5 0 9 9 10 20 1 12 -4 20 -14 20 -9 0 -13 -3 -10 -6z"/>
<path d="M77 235 c3 -8 9 -12 14 -9 12 7 11 11 -5 17 -10 4 -13 1 -9 -8z"/>
<path d="M100 210 c0 -6 5 -8 10 -5 6 3 10 2 10 -4 0 -5 -8 -12 -17 -14 -17
-4 -17 -5 -1 -6 11 -1 15 -7 12 -15 -7 -19 15 -31 29 -16 9 9 8 14 -3 23 -8 7
-15 18 -15 26 0 8 -6 16 -12 19 -7 2 -13 -1 -13 -8z m40 -50 c0 -5 -4 -10 -10
-10 -5 0 -10 5 -10 10 0 6 5 10 10 10 6 0 10 -4 10 -10z"/>
<path d="M532 199 c2 -7 12 -13 22 -15 23 -3 15 20 -8 24 -11 3 -17 -1 -14 -9z"/>
<path d="M490 135 c-7 -13 -17 -22 -22 -19 -4 3 -8 0 -8 -6 0 -6 -4 -9 -9 -5
-5 3 -13 0 -17 -6 -4 -8 -3 -9 4 -5 7 4 12 0 13 -11 0 -17 1 -17 8 0 4 10 10
18 14 18 21 -2 26 0 21 13 -4 11 0 13 16 9 20 -5 21 -4 11 16 -15 26 -15 26
-31 -4z"/>
<path d="M151 128 c-7 -11 -8 -17 -2 -13 6 3 11 -1 11 -9 0 -9 8 -16 19 -16
11 0 27 -7 35 -16 10 -9 16 -11 16 -4 0 7 6 5 16 -4 19 -20 20 -20 27 -2 4 10
1 13 -7 10 -8 -3 -17 0 -21 5 -3 6 -11 9 -16 6 -5 -4 -9 2 -9 11 0 10 -3 15
-6 11 -3 -3 -16 5 -28 18 -22 24 -22 24 -35 3z m39 -18 c0 -5 -5 -10 -11 -10
-5 0 -7 5 -4 10 3 6 8 10 11 10 2 0 4 -4 4 -10z"/>
<path d="M298 73 c18 -7 15 -21 -5 -26 -17 -4 -17 -5 0 -6 10 0 20 6 23 14 4
8 10 15 16 15 5 0 7 -4 3 -9 -3 -5 -1 -12 5 -16 5 -3 10 3 10 14 0 16 -6 19
-32 19 -18 -1 -27 -3 -20 -5z"/>
<path d="M367 60 c-3 -12 0 -20 8 -20 8 0 11 8 8 20 -3 11 -7 20 -8 20 -1 0
-5 -9 -8 -20z"/>
</g>
</svg>
